<?xml version="1.0" encoding="us-ascii" standalone="no"?><svg xmlns="http://www.w3.org/2000/svg" xmlns:xlink="http://www.w3.org/1999/xlink" contentStyleType="text/css" height="1693px" preserveAspectRatio="none" style="width:1214px;height:1693px;background:#FFFFFF;" version="1.1" viewBox="0 0 1214 1693" width="1214px" zoomAndPan="magnify"><defs/><g><text fill="#000000" font-family="sans-serif" font-size="14" font-weight="bold" lengthAdjust="spacing" textLength="321" x="448.25" y="27.9951">Crud GraphQL Relay - CreateTransaction</text><rect fill="none" height="104.5313" style="stroke:#000000;stroke-width:1.5;" width="672" x="10" y="258.125"/><rect fill="none" height="133.6641" style="stroke:#000000;stroke-width:1.5;" width="1025.5" x="10" y="447.9219"/><rect fill="none" height="234.0625" style="stroke:#000000;stroke-width:1.5;" width="1198.5" x="10" y="666.8516"/><rect fill="none" height="133.6641" style="stroke:#000000;stroke-width:1.5;" width="1198.5" x="10" y="1015.3125"/><line style="stroke:#181818;stroke-width:0.5;stroke-dasharray:5.0,5.0;" x1="41" x2="41" y1="118.5938" y2="1612.8359"/><line style="stroke:#181818;stroke-width:0.5;stroke-dasharray:5.0,5.0;" x1="297.5" x2="297.5" y1="118.5938" y2="1612.8359"/><line style="stroke:#181818;stroke-width:0.5;stroke-dasharray:5.0,5.0;" x1="606" x2="606" y1="118.5938" y2="1612.8359"/><line style="stroke:#181818;stroke-width:0.5;stroke-dasharray:5.0,5.0;" x1="969.5" x2="969.5" y1="118.5938" y2="1612.8359"/><line style="stroke:#181818;stroke-width:0.5;stroke-dasharray:5.0,5.0;" x1="1116.5" x2="1116.5" y1="118.5938" y2="1612.8359"/><text fill="#000000" font-family="sans-serif" font-size="14" lengthAdjust="spacing" textLength="36" x="20" y="115.292">Actor</text><ellipse cx="41" cy="50.7969" fill="#E2E2F0" rx="8" ry="8" style="stroke:#181818;stroke-width:0.5;"/><path d="M41,58.7969 L41,85.7969 M28,66.7969 L54,66.7969 M41,85.7969 L28,100.7969 M41,85.7969 L54,100.7969 " fill="none" style="stroke:#181818;stroke-width:0.5;"/><text fill="#000000" font-family="sans-serif" font-size="14" lengthAdjust="spacing" textLength="36" x="20" y="1624.8311">Actor</text><ellipse cx="41" cy="1636.6328" fill="#E2E2F0" rx="8" ry="8" style="stroke:#181818;stroke-width:0.5;"/><path d="M41,1644.6328 L41,1671.6328 M28,1652.6328 L54,1652.6328 M41,1671.6328 L28,1686.6328 M41,1671.6328 L54,1686.6328 " fill="none" style="stroke:#181818;stroke-width:0.5;"/><rect fill="#E2E2F0" height="30.2969" rx="2.5" ry="2.5" style="stroke:#181818;stroke-width:0.5;" width="211" x="192.5" y="87.2969"/><text fill="#000000" font-family="sans-serif" font-size="14" lengthAdjust="spacing" textLength="197" x="199.5" y="107.292">Create Transaction Form (UI)</text><rect fill="#E2E2F0" height="30.2969" rx="2.5" ry="2.5" style="stroke:#181818;stroke-width:0.5;" width="211" x="192.5" y="1611.8359"/><text fill="#000000" font-family="sans-serif" font-size="14" lengthAdjust="spacing" textLength="197" x="199.5" y="1631.8311">Create Transaction Form (UI)</text><rect fill="#E2E2F0" height="30.2969" rx="2.5" ry="2.5" style="stroke:#181818;stroke-width:0.5;" width="132" x="540" y="87.2969"/><text fill="#000000" font-family="sans-serif" font-size="14" lengthAdjust="spacing" textLength="118" x="547" y="107.292">GraphQL (Server)</text><rect fill="#E2E2F0" height="30.2969" rx="2.5" ry="2.5" style="stroke:#181818;stroke-width:0.5;" width="132" x="540" y="1611.8359"/><text fill="#000000" font-family="sans-serif" font-size="14" lengthAdjust="spacing" textLength="118" x="547" y="1631.8311">GraphQL (Server)</text><rect fill="#E2E2F0" height="30.2969" rx="2.5" ry="2.5" style="stroke:#181818;stroke-width:0.5;" width="111" x="914.5" y="87.2969"/><text fill="#000000" font-family="sans-serif" font-size="14" lengthAdjust="spacing" textLength="97" x="921.5" y="107.292">Cache (Redis)</text><rect fill="#E2E2F0" height="30.2969" rx="2.5" ry="2.5" style="stroke:#181818;stroke-width:0.5;" width="111" x="914.5" y="1611.8359"/><text fill="#000000" font-family="sans-serif" font-size="14" lengthAdjust="spacing" textLength="97" x="921.5" y="1631.8311">Cache (Redis)</text><rect fill="#E2E2F0" height="30.2969" rx="2.5" ry="2.5" style="stroke:#181818;stroke-width:0.5;" width="163" x="1035.5" y="87.2969"/><text fill="#000000" font-family="sans-serif" font-size="14" lengthAdjust="spacing" textLength="149" x="1042.5" y="107.292">MongoDB (Database)</text><rect fill="#E2E2F0" height="30.2969" rx="2.5" ry="2.5" style="stroke:#181818;stroke-width:0.5;" width="163" x="1035.5" y="1611.8359"/><text fill="#000000" font-family="sans-serif" font-size="14" lengthAdjust="spacing" textLength="149" x="1042.5" y="1631.8311">MongoDB (Database)</text><path d="M779,133.5938 L779,158.5938 L1161,158.5938 L1161,143.5938 L1151,133.5938 L779,133.5938 " fill="#FEFFDD" style="stroke:#181818;stroke-width:0.5;"/><path d="M1151,133.5938 L1151,143.5938 L1161,143.5938 L1151,133.5938 " fill="#FEFFDD" style="stroke:#181818;stroke-width:0.5;"/><text fill="#000000" font-family="sans-serif" font-size="13" lengthAdjust="spacing" textLength="361" x="785" y="150.6606">The idempotency key has 5 minutes of duration in cache</text><polygon fill="#181818" points="286,180.8594,296,184.8594,286,188.8594,290,184.8594" style="stroke:#181818;stroke-width:1.0;"/><line style="stroke:#181818;stroke-width:1.0;" x1="41" x2="292" y1="184.8594" y2="184.8594"/><text fill="#000000" font-family="sans-serif" font-size="13" lengthAdjust="spacing" textLength="233" x="48" y="179.7935">Open create transaction modal/form</text><polygon fill="#181818" points="594,209.9922,604,213.9922,594,217.9922,598,213.9922" style="stroke:#181818;stroke-width:1.0;"/><line style="stroke:#181818;stroke-width:1.0;" x1="298" x2="600" y1="213.9922" y2="213.9922"/><text fill="#000000" font-family="sans-serif" font-size="13" lengthAdjust="spacing" textLength="194" x="305" y="208.9263">Send the authentication token</text><polygon fill="#181818" points="594,239.125,604,243.125,594,247.125,598,243.125" style="stroke:#181818;stroke-width:1.0;"/><line style="stroke:#181818;stroke-width:1.0;" x1="298" x2="600" y1="243.125" y2="243.125"/><text fill="#000000" font-family="sans-serif" font-size="13" lengthAdjust="spacing" textLength="142" x="305" y="238.0591">Send transaction data</text><path d="M10,258.125 L74,258.125 L74,265.2578 L64,275.2578 L10,275.2578 L10,258.125 " fill="#EEEEEE" style="stroke:#000000;stroke-width:1.5;"/><rect fill="none" height="104.5313" style="stroke:#000000;stroke-width:1.5;" width="672" x="10" y="258.125"/><text fill="#000000" font-family="sans-serif" font-size="13" font-weight="bold" lengthAdjust="spacing" textLength="19" x="25" y="271.1919">alt</text><text fill="#000000" font-family="sans-serif" font-size="11" font-weight="bold" lengthAdjust="spacing" textLength="221" x="89" y="270.3354">[User unathorized (JWT is invalid)]</text><polygon fill="#181818" points="309,292.3906,299,296.3906,309,300.3906,305,296.3906" style="stroke:#181818;stroke-width:1.0;"/><line style="stroke:#181818;stroke-width:1.0;stroke-dasharray:2.0,2.0;" x1="303" x2="605" y1="296.3906" y2="296.3906"/><text fill="#000000" font-family="sans-serif" font-size="13" lengthAdjust="spacing" textLength="110" x="315" y="291.3247">User unathorized</text><polygon fill="#181818" points="52,321.5234,42,325.5234,52,329.5234,48,325.5234" style="stroke:#181818;stroke-width:1.0;"/><line style="stroke:#181818;stroke-width:1.0;stroke-dasharray:2.0,2.0;" x1="46" x2="297" y1="325.5234" y2="325.5234"/><text fill="#000000" font-family="sans-serif" font-size="13" lengthAdjust="spacing" textLength="202" x="58" y="320.4575">Show the message unathorized</text><polygon fill="#181818" points="286,350.6563,296,354.6563,286,358.6563,290,354.6563" style="stroke:#181818;stroke-width:1.0;"/><line style="stroke:#181818;stroke-width:1.0;stroke-dasharray:2.0,2.0;" x1="41" x2="292" y1="354.6563" y2="354.6563"/><text fill="#000000" font-family="sans-serif" font-size="13" lengthAdjust="spacing" textLength="232" x="48" y="349.5903">View the error message unathorized</text><polygon fill="#181818" points="958,386.7891,968,390.7891,958,394.7891,962,390.7891" style="stroke:#181818;stroke-width:1.0;"/><line style="stroke:#181818;stroke-width:1.0;" x1="606" x2="964" y1="390.7891" y2="390.7891"/><text fill="#000000" font-family="sans-serif" font-size="13" lengthAdjust="spacing" textLength="340" x="613" y="385.7231">Check if the idempotency-key already used in cached</text><line style="stroke:#181818;stroke-width:1.0;" x1="970" x2="1012" y1="419.9219" y2="419.9219"/><line style="stroke:#181818;stroke-width:1.0;" x1="1012" x2="1012" y1="419.9219" y2="432.9219"/><line style="stroke:#181818;stroke-width:1.0;" x1="971" x2="1012" y1="432.9219" y2="432.9219"/><polygon fill="#181818" points="981,428.9219,971,432.9219,981,436.9219,977,432.9219" style="stroke:#181818;stroke-width:1.0;"/><text fill="#000000" font-family="sans-serif" font-size="13" lengthAdjust="spacing" textLength="69" x="977" y="414.856">Processing</text><path d="M10,447.9219 L74,447.9219 L74,455.0547 L64,465.0547 L10,465.0547 L10,447.9219 " fill="#EEEEEE" style="stroke:#000000;stroke-width:1.5;"/><rect fill="none" height="133.6641" style="stroke:#000000;stroke-width:1.5;" width="1025.5" x="10" y="447.9219"/><text fill="#000000" font-family="sans-serif" font-size="13" font-weight="bold" lengthAdjust="spacing" textLength="19" x="25" y="460.9888">alt</text><text fill="#000000" font-family="sans-serif" font-size="11" font-weight="bold" lengthAdjust="spacing" textLength="89" x="89" y="460.1323">[cache found]</text><polygon fill="#181818" points="617,482.1875,607,486.1875,617,490.1875,613,486.1875" style="stroke:#181818;stroke-width:1.0;"/><line style="stroke:#181818;stroke-width:1.0;stroke-dasharray:2.0,2.0;" x1="611" x2="969" y1="486.1875" y2="486.1875"/><text fill="#000000" font-family="sans-serif" font-size="13" lengthAdjust="spacing" textLength="207" x="623" y="481.1216">found idempotency-key in cache</text><polygon fill="#181818" points="309,511.3203,299,515.3203,309,519.3203,305,515.3203" style="stroke:#181818;stroke-width:1.0;"/><line style="stroke:#181818;stroke-width:1.0;stroke-dasharray:2.0,2.0;" x1="303" x2="605" y1="515.3203" y2="515.3203"/><text fill="#000000" font-family="sans-serif" font-size="13" lengthAdjust="spacing" textLength="284" x="315" y="510.2544">Response saved Transaction record in cache</text><polygon fill="#181818" points="52,540.4531,42,544.4531,52,548.4531,48,544.4531" style="stroke:#181818;stroke-width:1.0;"/><line style="stroke:#181818;stroke-width:1.0;stroke-dasharray:2.0,2.0;" x1="46" x2="297" y1="544.4531" y2="544.4531"/><text fill="#000000" font-family="sans-serif" font-size="13" lengthAdjust="spacing" textLength="201" x="58" y="539.3872">Display toast success message</text><polygon fill="#181818" points="286,569.5859,296,573.5859,286,577.5859,290,573.5859" style="stroke:#181818;stroke-width:1.0;"/><line style="stroke:#181818;stroke-width:1.0;stroke-dasharray:2.0,2.0;" x1="41" x2="292" y1="573.5859" y2="573.5859"/><text fill="#000000" font-family="sans-serif" font-size="13" lengthAdjust="spacing" textLength="154" x="48" y="568.52">Views success message</text><polygon fill="#181818" points="1105,605.7188,1115,609.7188,1105,613.7188,1109,609.7188" style="stroke:#181818;stroke-width:1.0;"/><line style="stroke:#181818;stroke-width:1.0;" x1="606" x2="1111" y1="609.7188" y2="609.7188"/><text fill="#000000" font-family="sans-serif" font-size="13" lengthAdjust="spacing" textLength="354" x="613" y="604.6528">Check if the idempotency-key already used in database</text><line style="stroke:#181818;stroke-width:1.0;" x1="1117" x2="1159" y1="638.8516" y2="638.8516"/><line style="stroke:#181818;stroke-width:1.0;" x1="1159" x2="1159" y1="638.8516" y2="651.8516"/><line style="stroke:#181818;stroke-width:1.0;" x1="1118" x2="1159" y1="651.8516" y2="651.8516"/><polygon fill="#181818" points="1128,647.8516,1118,651.8516,1128,655.8516,1124,651.8516" style="stroke:#181818;stroke-width:1.0;"/><text fill="#000000" font-family="sans-serif" font-size="13" lengthAdjust="spacing" textLength="69" x="1124" y="633.7856">Processing</text><path d="M10,666.8516 L74,666.8516 L74,673.9844 L64,683.9844 L10,683.9844 L10,666.8516 " fill="#EEEEEE" style="stroke:#000000;stroke-width:1.5;"/><rect fill="none" height="234.0625" style="stroke:#000000;stroke-width:1.5;" width="1198.5" x="10" y="666.8516"/><text fill="#000000" font-family="sans-serif" font-size="13" font-weight="bold" lengthAdjust="spacing" textLength="19" x="25" y="679.9185">alt</text><text fill="#000000" font-family="sans-serif" font-size="11" font-weight="bold" lengthAdjust="spacing" textLength="213" x="89" y="679.062">[idempotency-key already exists]</text><polygon fill="#181818" points="617,701.1172,607,705.1172,617,709.1172,613,705.1172" style="stroke:#181818;stroke-width:1.0;"/><line style="stroke:#181818;stroke-width:1.0;stroke-dasharray:2.0,2.0;" x1="611" x2="1116" y1="705.1172" y2="705.1172"/><text fill="#000000" font-family="sans-serif" font-size="13" lengthAdjust="spacing" textLength="229" x="623" y="700.0513">found idempotency-key in database</text><polygon fill="#181818" points="958,730.25,968,734.25,958,738.25,962,734.25" style="stroke:#181818;stroke-width:1.0;"/><line style="stroke:#181818;stroke-width:1.0;" x1="606" x2="964" y1="734.25" y2="734.25"/><text fill="#000000" font-family="sans-serif" font-size="13" lengthAdjust="spacing" textLength="210" x="613" y="729.1841">Save transaction record in cache</text><line style="stroke:#181818;stroke-width:1.0;" x1="970" x2="1012" y1="763.3828" y2="763.3828"/><line style="stroke:#181818;stroke-width:1.0;" x1="1012" x2="1012" y1="763.3828" y2="776.3828"/><line style="stroke:#181818;stroke-width:1.0;" x1="971" x2="1012" y1="776.3828" y2="776.3828"/><polygon fill="#181818" points="981,772.3828,971,776.3828,981,780.3828,977,776.3828" style="stroke:#181818;stroke-width:1.0;"/><text fill="#000000" font-family="sans-serif" font-size="13" lengthAdjust="spacing" textLength="51" x="977" y="758.3169">Caching</text><polygon fill="#181818" points="617,801.5156,607,805.5156,617,809.5156,613,805.5156" style="stroke:#181818;stroke-width:1.0;"/><line style="stroke:#181818;stroke-width:1.0;stroke-dasharray:2.0,2.0;" x1="611" x2="969" y1="805.5156" y2="805.5156"/><text fill="#000000" font-family="sans-serif" font-size="13" lengthAdjust="spacing" textLength="48" x="623" y="800.4497">Cached</text><polygon fill="#181818" points="309,830.6484,299,834.6484,309,838.6484,305,834.6484" style="stroke:#181818;stroke-width:1.0;"/><line style="stroke:#181818;stroke-width:1.0;stroke-dasharray:2.0,2.0;" x1="303" x2="605" y1="834.6484" y2="834.6484"/><text fill="#000000" font-family="sans-serif" font-size="13" lengthAdjust="spacing" textLength="284" x="315" y="829.5825">Response saved Transaction record in cache</text><polygon fill="#181818" points="52,859.7813,42,863.7813,52,867.7813,48,863.7813" style="stroke:#181818;stroke-width:1.0;"/><line style="stroke:#181818;stroke-width:1.0;stroke-dasharray:2.0,2.0;" x1="46" x2="297" y1="863.7813" y2="863.7813"/><text fill="#000000" font-family="sans-serif" font-size="13" lengthAdjust="spacing" textLength="201" x="58" y="858.7153">Display toast success message</text><polygon fill="#181818" points="286,888.9141,296,892.9141,286,896.9141,290,892.9141" style="stroke:#181818;stroke-width:1.0;"/><line style="stroke:#181818;stroke-width:1.0;stroke-dasharray:2.0,2.0;" x1="41" x2="292" y1="892.9141" y2="892.9141"/><text fill="#000000" font-family="sans-serif" font-size="13" lengthAdjust="spacing" textLength="154" x="48" y="887.8481">Views success message</text><polygon fill="#181818" points="617,925.0469,607,929.0469,617,933.0469,613,929.0469" style="stroke:#181818;stroke-width:1.0;"/><line style="stroke:#181818;stroke-width:1.0;stroke-dasharray:2.0,2.0;" x1="611" x2="969" y1="929.0469" y2="929.0469"/><text fill="#000000" font-family="sans-serif" font-size="13" lengthAdjust="spacing" textLength="234" x="623" y="923.981">Not found idempotency-key in cache</text><polygon fill="#181818" points="1105,954.1797,1115,958.1797,1105,962.1797,1109,958.1797" style="stroke:#181818;stroke-width:1.0;"/><line style="stroke:#181818;stroke-width:1.0;" x1="606" x2="1111" y1="958.1797" y2="958.1797"/><text fill="#000000" font-family="sans-serif" font-size="13" lengthAdjust="spacing" textLength="295" x="613" y="953.1138">Check if destination account belongs to a user</text><line style="stroke:#181818;stroke-width:1.0;" x1="1117" x2="1159" y1="987.3125" y2="987.3125"/><line style="stroke:#181818;stroke-width:1.0;" x1="1159" x2="1159" y1="987.3125" y2="1000.3125"/><line style="stroke:#181818;stroke-width:1.0;" x1="1118" x2="1159" y1="1000.3125" y2="1000.3125"/><polygon fill="#181818" points="1128,996.3125,1118,1000.3125,1128,1004.3125,1124,1000.3125" style="stroke:#181818;stroke-width:1.0;"/><text fill="#000000" font-family="sans-serif" font-size="13" lengthAdjust="spacing" textLength="69" x="1124" y="982.2466">Processing</text><path d="M10,1015.3125 L74,1015.3125 L74,1022.4453 L64,1032.4453 L10,1032.4453 L10,1015.3125 " fill="#EEEEEE" style="stroke:#000000;stroke-width:1.5;"/><rect fill="none" height="133.6641" style="stroke:#000000;stroke-width:1.5;" width="1198.5" x="10" y="1015.3125"/><text fill="#000000" font-family="sans-serif" font-size="13" font-weight="bold" lengthAdjust="spacing" textLength="19" x="25" y="1028.3794">alt</text><text fill="#000000" font-family="sans-serif" font-size="11" font-weight="bold" lengthAdjust="spacing" textLength="127" x="89" y="1027.5229">[account not found]</text><polygon fill="#181818" points="617,1049.5781,607,1053.5781,617,1057.5781,613,1053.5781" style="stroke:#181818;stroke-width:1.0;"/><line style="stroke:#181818;stroke-width:1.0;stroke-dasharray:2.0,2.0;" x1="611" x2="1116" y1="1053.5781" y2="1053.5781"/><text fill="#000000" font-family="sans-serif" font-size="13" lengthAdjust="spacing" textLength="145" x="623" y="1048.5122">Account was not found</text><polygon fill="#181818" points="309,1078.7109,299,1082.7109,309,1086.7109,305,1082.7109" style="stroke:#181818;stroke-width:1.0;"/><line style="stroke:#181818;stroke-width:1.0;stroke-dasharray:2.0,2.0;" x1="303" x2="605" y1="1082.7109" y2="1082.7109"/><text fill="#000000" font-family="sans-serif" font-size="13" lengthAdjust="spacing" textLength="203" x="315" y="1077.645">Return response error message</text><polygon fill="#181818" points="52,1107.8438,42,1111.8438,52,1115.8438,48,1111.8438" style="stroke:#181818;stroke-width:1.0;"/><line style="stroke:#181818;stroke-width:1.0;stroke-dasharray:2.0,2.0;" x1="46" x2="297" y1="1111.8438" y2="1111.8438"/><text fill="#000000" font-family="sans-serif" font-size="13" lengthAdjust="spacing" textLength="181" x="58" y="1106.7778">Display error toast message</text><polygon fill="#181818" points="286,1136.9766,296,1140.9766,286,1144.9766,290,1140.9766" style="stroke:#181818;stroke-width:1.0;"/><line style="stroke:#181818;stroke-width:1.0;stroke-dasharray:2.0,2.0;" x1="41" x2="292" y1="1140.9766" y2="1140.9766"/><text fill="#000000" font-family="sans-serif" font-size="13" lengthAdjust="spacing" textLength="134" x="48" y="1135.9106">Views error message</text><polygon fill="#181818" points="617,1173.1094,607,1177.1094,617,1181.1094,613,1177.1094" style="stroke:#181818;stroke-width:1.0;"/><line style="stroke:#181818;stroke-width:1.0;stroke-dasharray:2.0,2.0;" x1="611" x2="1116" y1="1177.1094" y2="1177.1094"/><text fill="#000000" font-family="sans-serif" font-size="13" lengthAdjust="spacing" textLength="120" x="623" y="1172.0435">Account was found</text><polygon fill="#181818" points="1105,1202.2422,1115,1206.2422,1105,1210.2422,1109,1206.2422" style="stroke:#181818;stroke-width:1.0;"/><line style="stroke:#181818;stroke-width:1.0;" x1="606" x2="1111" y1="1206.2422" y2="1206.2422"/><text fill="#000000" font-family="sans-serif" font-size="13" lengthAdjust="spacing" textLength="375" x="613" y="1201.1763">Debit from origin account and credit in destination account</text><line style="stroke:#181818;stroke-width:1.0;" x1="1117" x2="1159" y1="1235.375" y2="1235.375"/><line style="stroke:#181818;stroke-width:1.0;" x1="1159" x2="1159" y1="1235.375" y2="1248.375"/><line style="stroke:#181818;stroke-width:1.0;" x1="1118" x2="1159" y1="1248.375" y2="1248.375"/><polygon fill="#181818" points="1128,1244.375,1118,1248.375,1128,1252.375,1124,1248.375" style="stroke:#181818;stroke-width:1.0;"/><text fill="#000000" font-family="sans-serif" font-size="13" lengthAdjust="spacing" textLength="62" x="1124" y="1230.3091">Persisting</text><polygon fill="#181818" points="617,1273.5078,607,1277.5078,617,1281.5078,613,1277.5078" style="stroke:#181818;stroke-width:1.0;"/><line style="stroke:#181818;stroke-width:1.0;stroke-dasharray:2.0,2.0;" x1="611" x2="1116" y1="1277.5078" y2="1277.5078"/><text fill="#000000" font-family="sans-serif" font-size="13" lengthAdjust="spacing" textLength="59" x="623" y="1272.4419">Persisted</text><polygon fill="#181818" points="1105,1302.6406,1115,1306.6406,1105,1310.6406,1109,1306.6406" style="stroke:#181818;stroke-width:1.0;"/><line style="stroke:#181818;stroke-width:1.0;" x1="606" x2="1111" y1="1306.6406" y2="1306.6406"/><text fill="#000000" font-family="sans-serif" font-size="13" lengthAdjust="spacing" textLength="212" x="613" y="1301.5747">Save transaction in the database</text><line style="stroke:#181818;stroke-width:1.0;" x1="1117" x2="1159" y1="1335.7734" y2="1335.7734"/><line style="stroke:#181818;stroke-width:1.0;" x1="1159" x2="1159" y1="1335.7734" y2="1348.7734"/><line style="stroke:#181818;stroke-width:1.0;" x1="1118" x2="1159" y1="1348.7734" y2="1348.7734"/><polygon fill="#181818" points="1128,1344.7734,1118,1348.7734,1128,1352.7734,1124,1348.7734" style="stroke:#181818;stroke-width:1.0;"/><text fill="#000000" font-family="sans-serif" font-size="13" lengthAdjust="spacing" textLength="62" x="1124" y="1330.7075">Persisting</text><polygon fill="#181818" points="617,1373.9063,607,1377.9063,617,1381.9063,613,1377.9063" style="stroke:#181818;stroke-width:1.0;"/><line style="stroke:#181818;stroke-width:1.0;stroke-dasharray:2.0,2.0;" x1="611" x2="1116" y1="1377.9063" y2="1377.9063"/><text fill="#000000" font-family="sans-serif" font-size="13" lengthAdjust="spacing" textLength="59" x="623" y="1372.8403">Persisted</text><polygon fill="#181818" points="958,1403.0391,968,1407.0391,958,1411.0391,962,1407.0391" style="stroke:#181818;stroke-width:1.0;"/><line style="stroke:#181818;stroke-width:1.0;" x1="606" x2="964" y1="1407.0391" y2="1407.0391"/><text fill="#000000" font-family="sans-serif" font-size="13" lengthAdjust="spacing" textLength="210" x="613" y="1401.9731">Save transaction record in cache</text><line style="stroke:#181818;stroke-width:1.0;" x1="970" x2="1012" y1="1436.1719" y2="1436.1719"/><line style="stroke:#181818;stroke-width:1.0;" x1="1012" x2="1012" y1="1436.1719" y2="1449.1719"/><line style="stroke:#181818;stroke-width:1.0;" x1="971" x2="1012" y1="1449.1719" y2="1449.1719"/><polygon fill="#181818" points="981,1445.1719,971,1449.1719,981,1453.1719,977,1449.1719" style="stroke:#181818;stroke-width:1.0;"/><text fill="#000000" font-family="sans-serif" font-size="13" lengthAdjust="spacing" textLength="51" x="977" y="1431.106">Caching</text><polygon fill="#181818" points="617,1474.3047,607,1478.3047,617,1482.3047,613,1478.3047" style="stroke:#181818;stroke-width:1.0;"/><line style="stroke:#181818;stroke-width:1.0;stroke-dasharray:2.0,2.0;" x1="611" x2="969" y1="1478.3047" y2="1478.3047"/><text fill="#000000" font-family="sans-serif" font-size="13" lengthAdjust="spacing" textLength="48" x="623" y="1473.2388">Cached</text><polygon fill="#181818" points="309,1503.4375,299,1507.4375,309,1511.4375,305,1507.4375" style="stroke:#181818;stroke-width:1.0;"/><line style="stroke:#181818;stroke-width:1.0;stroke-dasharray:2.0,2.0;" x1="303" x2="605" y1="1507.4375" y2="1507.4375"/><text fill="#000000" font-family="sans-serif" font-size="13" lengthAdjust="spacing" textLength="196" x="315" y="1502.3716">Transaction saved successfully</text><polygon fill="#181818" points="309,1532.5703,299,1536.5703,309,1540.5703,305,1536.5703" style="stroke:#181818;stroke-width:1.0;"/><line style="stroke:#181818;stroke-width:1.0;stroke-dasharray:2.0,2.0;" x1="303" x2="605" y1="1536.5703" y2="1536.5703"/><text fill="#000000" font-family="sans-serif" font-size="13" lengthAdjust="spacing" textLength="229" x="315" y="1531.5044">Return transaction data in response</text><polygon fill="#181818" points="52,1561.7031,42,1565.7031,52,1569.7031,48,1565.7031" style="stroke:#181818;stroke-width:1.0;"/><line style="stroke:#181818;stroke-width:1.0;stroke-dasharray:2.0,2.0;" x1="46" x2="297" y1="1565.7031" y2="1565.7031"/><text fill="#000000" font-family="sans-serif" font-size="13" lengthAdjust="spacing" textLength="201" x="58" y="1560.6372">Display success toast message</text><polygon fill="#181818" points="286,1590.8359,296,1594.8359,286,1598.8359,290,1594.8359" style="stroke:#181818;stroke-width:1.0;"/><line style="stroke:#181818;stroke-width:1.0;stroke-dasharray:2.0,2.0;" x1="41" x2="292" y1="1594.8359" y2="1594.8359"/><text fill="#000000" font-family="sans-serif" font-size="13" lengthAdjust="spacing" textLength="154" x="48" y="1589.77">Views success message</text><!--SRC=[rLPDRzim3BthLn0vfOTWfrsAOK3NOCE6VJRjTcOj9X7YI8Oafyj-_IZBRcN5pWTssgKf9FA9VE-H2HRUM9ZSX8-9yCgN1BUsbl31OhN-yHdkgCGzpFYGqDEzHUsmyCfe8IgqNXMgGkrX4kyX2O3tncvX-l3nQWBe3W72TH-ZUtEw8BiZ6_FQmtYKlOd5cc1wHrAv6Dpysnpt8xyOlJBpTp2TeyT7T1J3ssCXjE7Q3J-G85p3FQChITkARtMnXmtjOSrfhs6hTEt9WLc2h2qsxIeDHVEoQEcSlHrk-Xg-LSJ1aJ6VCBOr4ijNoq3CO2OmP8-FQrYGbk2vKApvh-QMOpNUR4XVY99K8fad8R3qyE2ObLgZNnkh_f24wQTVzw0Szxl3Kiah0SDjmflPB7yd1-FSbgmcUeIknTeyDJrkoJbSKOPWoTTMmqz5COgiPKyFnNANGlHA2boaaj-kgTY0MZP0YVQpe3sMN9_SG-sOXavkALxoSxJlrXHSXjAhXiec7fQcrg7iVXsX_JIrYJgeuDbZ5t1-HwuosX4ut77TwOHQAeoLAUePQioLgy9Ey0QT1rSNeSMExhuSxk0w-4mCQD1EueK2o7QQHJVVAL96_XWM_LREkq4zdg56nNWk84_FZB1WwdlpTSZyk8l2H-ZYb6Lkent_OslaniWx_6hygS4umrcId5Swhaai2iRpy4Wbnpck733OovvZgIvPTsNb4lLCTDD6F_4tI9enoEMWM0rvjjEij-OkqoUcHfL6rEcZ1stEwonsDQx2d1uLzsxD5dWfhzIB1CYoydUYvEimMOSY3Kj2rgaGkX971hYDecEL7SmeLn6MqF4byw_FNxGbJk-8ipQ465qGcUNIXH1NH3kqoxeizsV3jCxDVr-4lZetYyIz9ypRxOs-VO-jbhy0]--></g></svg>