<?xml version="1.0" encoding="us-ascii" standalone="no"?><svg xmlns="http://www.w3.org/2000/svg" xmlns:xlink="http://www.w3.org/1999/xlink" contentStyleType="text/css" height="1941px" preserveAspectRatio="none" style="width:1577px;height:1941px;background:#FFFFFF;" version="1.1" viewBox="0 0 1577 1941" width="1577px" zoomAndPan="magnify"><defs/><g><text fill="#000000" font-family="sans-serif" font-size="14" font-weight="bold" lengthAdjust="spacing" textLength="210" x="682" y="27.9951">Multitenancy Leaky Bucket</text><rect fill="none" height="1374.7344" style="stroke:#000000;stroke-width:1.5;" width="1542.5" x="10" y="468.9219"/><rect fill="none" height="1241.3984" style="stroke:#000000;stroke-width:1.5;" width="1522.5" x="20" y="595.2578"/><rect fill="none" height="177.6016" style="stroke:#000000;stroke-width:1.5;" width="1110.5" x="30" y="851.125"/><rect fill="none" height="177.6016" style="stroke:#000000;stroke-width:1.5;" width="1110.5" x="30" y="1113.9922"/><rect fill="none" height="177.6016" style="stroke:#000000;stroke-width:1.5;" width="1502.5" x="30" y="1376.8594"/><line style="stroke:#181818;stroke-width:0.5;stroke-dasharray:5.0,5.0;" x1="61" x2="61" y1="118.5938" y2="1860.6563"/><line style="stroke:#181818;stroke-width:0.5;stroke-dasharray:5.0,5.0;" x1="317.5" x2="317.5" y1="118.5938" y2="1860.6563"/><line style="stroke:#181818;stroke-width:0.5;stroke-dasharray:5.0,5.0;" x1="571" x2="571" y1="118.5938" y2="1860.6563"/><line style="stroke:#181818;stroke-width:0.5;stroke-dasharray:5.0,5.0;" x1="787.5" x2="787.5" y1="118.5938" y2="1860.6563"/><line style="stroke:#181818;stroke-width:0.5;stroke-dasharray:5.0,5.0;" x1="1048.5" x2="1048.5" y1="118.5938" y2="1860.6563"/><line style="stroke:#181818;stroke-width:0.5;stroke-dasharray:5.0,5.0;" x1="1331.5" x2="1331.5" y1="118.5938" y2="1860.6563"/><text fill="#000000" font-family="sans-serif" font-size="14" lengthAdjust="spacing" textLength="36" x="40" y="115.292">Actor</text><ellipse cx="61" cy="50.7969" fill="#E2E2F0" rx="8" ry="8" style="stroke:#181818;stroke-width:0.5;"/><path d="M61,58.7969 L61,85.7969 M48,66.7969 L74,66.7969 M61,85.7969 L48,100.7969 M61,85.7969 L74,100.7969 " fill="none" style="stroke:#181818;stroke-width:0.5;"/><text fill="#000000" font-family="sans-serif" font-size="14" lengthAdjust="spacing" textLength="36" x="40" y="1872.6514">Actor</text><ellipse cx="61" cy="1884.4531" fill="#E2E2F0" rx="8" ry="8" style="stroke:#181818;stroke-width:0.5;"/><path d="M61,1892.4531 L61,1919.4531 M48,1900.4531 L74,1900.4531 M61,1919.4531 L48,1934.4531 M61,1919.4531 L74,1934.4531 " fill="none" style="stroke:#181818;stroke-width:0.5;"/><rect fill="#E2E2F0" height="30.2969" rx="2.5" ry="2.5" style="stroke:#181818;stroke-width:0.5;" width="211" x="212.5" y="87.2969"/><text fill="#000000" font-family="sans-serif" font-size="14" lengthAdjust="spacing" textLength="197" x="219.5" y="107.292">Create Transaction Form (UI)</text><rect fill="#E2E2F0" height="30.2969" rx="2.5" ry="2.5" style="stroke:#181818;stroke-width:0.5;" width="211" x="212.5" y="1859.6563"/><text fill="#000000" font-family="sans-serif" font-size="14" lengthAdjust="spacing" textLength="197" x="219.5" y="1879.6514">Create Transaction Form (UI)</text><rect fill="#E2E2F0" height="30.2969" rx="2.5" ry="2.5" style="stroke:#181818;stroke-width:0.5;" width="132" x="505" y="87.2969"/><text fill="#000000" font-family="sans-serif" font-size="14" lengthAdjust="spacing" textLength="118" x="512" y="107.292">GraphQL (Server)</text><rect fill="#E2E2F0" height="30.2969" rx="2.5" ry="2.5" style="stroke:#181818;stroke-width:0.5;" width="132" x="505" y="1859.6563"/><text fill="#000000" font-family="sans-serif" font-size="14" lengthAdjust="spacing" textLength="118" x="512" y="1879.6514">GraphQL (Server)</text><rect fill="#E2E2F0" height="30.2969" rx="2.5" ry="2.5" style="stroke:#181818;stroke-width:0.5;" width="201" x="687.5" y="87.2969"/><text fill="#000000" font-family="sans-serif" font-size="14" lengthAdjust="spacing" textLength="187" x="694.5" y="107.292">Leaky Bucket (Rate Limiter)</text><rect fill="#E2E2F0" height="30.2969" rx="2.5" ry="2.5" style="stroke:#181818;stroke-width:0.5;" width="201" x="687.5" y="1859.6563"/><text fill="#000000" font-family="sans-serif" font-size="14" lengthAdjust="spacing" textLength="187" x="694.5" y="1879.6514">Leaky Bucket (Rate Limiter)</text><rect fill="#E2E2F0" height="30.2969" rx="2.5" ry="2.5" style="stroke:#181818;stroke-width:0.5;" width="163" x="967.5" y="87.2969"/><text fill="#000000" font-family="sans-serif" font-size="14" lengthAdjust="spacing" textLength="149" x="974.5" y="107.292">MongoDB (Database)</text><rect fill="#E2E2F0" height="30.2969" rx="2.5" ry="2.5" style="stroke:#181818;stroke-width:0.5;" width="163" x="967.5" y="1859.6563"/><text fill="#000000" font-family="sans-serif" font-size="14" lengthAdjust="spacing" textLength="149" x="974.5" y="1879.6514">MongoDB (Database)</text><rect fill="#E2E2F0" height="30.2969" rx="2.5" ry="2.5" style="stroke:#181818;stroke-width:0.5;" width="382" x="1140.5" y="87.2969"/><text fill="#000000" font-family="sans-serif" font-size="14" lengthAdjust="spacing" textLength="368" x="1147.5" y="107.292">Bacen Dict API Key Check (Simulator External Service)</text><rect fill="#E2E2F0" height="30.2969" rx="2.5" ry="2.5" style="stroke:#181818;stroke-width:0.5;" width="382" x="1140.5" y="1859.6563"/><text fill="#000000" font-family="sans-serif" font-size="14" lengthAdjust="spacing" textLength="368" x="1147.5" y="1879.6514">Bacen Dict API Key Check (Simulator External Service)</text><path d="M672,133.5938 L672,158.5938 L904,158.5938 L904,143.5938 L894,133.5938 L672,133.5938 " fill="#FEFFDD" style="stroke:#181818;stroke-width:0.5;"/><path d="M894,133.5938 L894,143.5938 L904,143.5938 L894,133.5938 " fill="#FEFFDD" style="stroke:#181818;stroke-width:0.5;"/><text fill="#000000" font-family="sans-serif" font-size="13" lengthAdjust="spacing" textLength="211" x="678" y="150.6606">The bucket starts with 10 tokens.</text><path d="M555,168.7266 L555,193.7266 L1021,193.7266 L1021,178.7266 L1011,168.7266 L555,168.7266 " fill="#FEFFDD" style="stroke:#181818;stroke-width:0.5;"/><path d="M1011,168.7266 L1011,178.7266 L1021,178.7266 L1011,168.7266 " fill="#FEFFDD" style="stroke:#181818;stroke-width:0.5;"/><text fill="#000000" font-family="sans-serif" font-size="13" lengthAdjust="spacing" textLength="445" x="561" y="185.7935">Each Pix key lookup that doesn&#8217;t result in a PixOut consumes 1 token.</text><path d="M626,203.8594 L626,228.8594 L950,228.8594 L950,213.8594 L940,203.8594 L626,203.8594 " fill="#FEFFDD" style="stroke:#181818;stroke-width:0.5;"/><path d="M940,203.8594 L940,213.8594 L950,213.8594 L940,203.8594 " fill="#FEFFDD" style="stroke:#181818;stroke-width:0.5;"/><text fill="#000000" font-family="sans-serif" font-size="13" lengthAdjust="spacing" textLength="303" x="632" y="220.9263">1 token is replenished in the bucket every hour.</text><path d="M1215,238.9922 L1215,263.9922 L1447,263.9922 L1447,248.9922 L1437,238.9922 L1215,238.9922 " fill="#FEFFDD" style="stroke:#181818;stroke-width:0.5;"/><path d="M1437,238.9922 L1437,248.9922 L1447,248.9922 L1437,238.9922 " fill="#FEFFDD" style="stroke:#181818;stroke-width:0.5;"/><text fill="#000000" font-family="sans-serif" font-size="13" lengthAdjust="spacing" textLength="211" x="1221" y="256.0591">The bucket starts with 70 tokens.</text><path d="M1093,274.125 L1093,299.125 L1570,299.125 L1570,284.125 L1560,274.125 L1093,274.125 " fill="#FEFFDD" style="stroke:#181818;stroke-width:0.5;"/><path d="M1560,274.125 L1560,284.125 L1570,284.125 L1560,274.125 " fill="#FEFFDD" style="stroke:#181818;stroke-width:0.5;"/><text fill="#000000" font-family="sans-serif" font-size="13" lengthAdjust="spacing" textLength="456" x="1099" y="291.1919">Each valid key lookup that doesn&#8217;t result in a PixOut consumes 1 token.</text><path d="M1166,309.2578 L1166,334.2578 L1497,334.2578 L1497,319.2578 L1487,309.2578 L1166,309.2578 " fill="#FEFFDD" style="stroke:#181818;stroke-width:0.5;"/><path d="M1487,309.2578 L1487,319.2578 L1497,319.2578 L1487,309.2578 " fill="#FEFFDD" style="stroke:#181818;stroke-width:0.5;"/><text fill="#000000" font-family="sans-serif" font-size="13" lengthAdjust="spacing" textLength="310" x="1172" y="326.3247">Each invalid Pix key lookup consumes 20 tokens.</text><path d="M1192,344.3906 L1192,369.3906 L1471,369.3906 L1471,354.3906 L1461,344.3906 L1192,344.3906 " fill="#FEFFDD" style="stroke:#181818;stroke-width:0.5;"/><path d="M1461,344.3906 L1461,354.3906 L1471,354.3906 L1461,344.3906 " fill="#FEFFDD" style="stroke:#181818;stroke-width:0.5;"/><text fill="#000000" font-family="sans-serif" font-size="13" lengthAdjust="spacing" textLength="258" x="1198" y="361.4575">70 tokens are replenished every minute.</text><polygon fill="#181818" points="306,391.6563,316,395.6563,306,399.6563,310,395.6563" style="stroke:#181818;stroke-width:1.0;"/><line style="stroke:#181818;stroke-width:1.0;" x1="61" x2="312" y1="395.6563" y2="395.6563"/><text fill="#000000" font-family="sans-serif" font-size="13" lengthAdjust="spacing" textLength="233" x="68" y="390.5903">Open create transaction modal/form</text><polygon fill="#181818" points="559,420.7891,569,424.7891,559,428.7891,563,424.7891" style="stroke:#181818;stroke-width:1.0;"/><line style="stroke:#181818;stroke-width:1.0;" x1="318" x2="565" y1="424.7891" y2="424.7891"/><text fill="#000000" font-family="sans-serif" font-size="13" lengthAdjust="spacing" textLength="194" x="325" y="419.7231">Send the authentication token</text><polygon fill="#181818" points="559,449.9219,569,453.9219,559,457.9219,563,453.9219" style="stroke:#181818;stroke-width:1.0;"/><line style="stroke:#181818;stroke-width:1.0;" x1="318" x2="565" y1="453.9219" y2="453.9219"/><text fill="#000000" font-family="sans-serif" font-size="13" lengthAdjust="spacing" textLength="142" x="325" y="448.856">Send transaction data</text><path d="M10,468.9219 L74,468.9219 L74,476.0547 L64,486.0547 L10,486.0547 L10,468.9219 " fill="#EEEEEE" style="stroke:#000000;stroke-width:1.5;"/><rect fill="none" height="1374.7344" style="stroke:#000000;stroke-width:1.5;" width="1542.5" x="10" y="468.9219"/><text fill="#000000" font-family="sans-serif" font-size="13" font-weight="bold" lengthAdjust="spacing" textLength="19" x="25" y="481.9888">alt</text><text fill="#000000" font-family="sans-serif" font-size="11" font-weight="bold" lengthAdjust="spacing" textLength="221" x="89" y="481.1323">[User unathorized (JWT is invalid)]</text><polygon fill="#181818" points="329,503.1875,319,507.1875,329,511.1875,325,507.1875" style="stroke:#181818;stroke-width:1.0;"/><line style="stroke:#181818;stroke-width:1.0;stroke-dasharray:2.0,2.0;" x1="323" x2="570" y1="507.1875" y2="507.1875"/><text fill="#000000" font-family="sans-serif" font-size="13" lengthAdjust="spacing" textLength="110" x="335" y="502.1216">User unathorized</text><polygon fill="#181818" points="72,532.3203,62,536.3203,72,540.3203,68,536.3203" style="stroke:#181818;stroke-width:1.0;"/><line style="stroke:#181818;stroke-width:1.0;stroke-dasharray:2.0,2.0;" x1="66" x2="317" y1="536.3203" y2="536.3203"/><text fill="#000000" font-family="sans-serif" font-size="13" lengthAdjust="spacing" textLength="202" x="78" y="531.2544">Show the message unathorized</text><polygon fill="#181818" points="306,561.4531,316,565.4531,306,569.4531,310,565.4531" style="stroke:#181818;stroke-width:1.0;"/><line style="stroke:#181818;stroke-width:1.0;stroke-dasharray:2.0,2.0;" x1="61" x2="312" y1="565.4531" y2="565.4531"/><text fill="#000000" font-family="sans-serif" font-size="13" lengthAdjust="spacing" textLength="232" x="68" y="560.3872">View the error message unathorized</text><line style="stroke:#000000;stroke-width:1.0;stroke-dasharray:2.0,2.0;" x1="10" x2="1552.5" y1="574.4531" y2="574.4531"/><text fill="#000000" font-family="sans-serif" font-size="11" font-weight="bold" lengthAdjust="spacing" textLength="201" x="15" y="584.6636">[User authorized (JWT is valid)]</text><path d="M20,595.2578 L84,595.2578 L84,602.3906 L74,612.3906 L20,612.3906 L20,595.2578 " fill="#EEEEEE" style="stroke:#000000;stroke-width:1.5;"/><rect fill="none" height="1241.3984" style="stroke:#000000;stroke-width:1.5;" width="1522.5" x="20" y="595.2578"/><text fill="#000000" font-family="sans-serif" font-size="13" font-weight="bold" lengthAdjust="spacing" textLength="19" x="35" y="608.3247">alt</text><text fill="#000000" font-family="sans-serif" font-size="11" font-weight="bold" lengthAdjust="spacing" textLength="273" x="99" y="607.4683">[Bucket at capacity (Transaction blocked)]</text><polygon fill="#181818" points="329,629.5234,319,633.5234,329,637.5234,325,633.5234" style="stroke:#181818;stroke-width:1.0;"/><line style="stroke:#181818;stroke-width:1.0;stroke-dasharray:2.0,2.0;" x1="323" x2="570" y1="633.5234" y2="633.5234"/><text fill="#000000" font-family="sans-serif" font-size="13" lengthAdjust="spacing" textLength="113" x="335" y="628.4575">Throttling request</text><polygon fill="#181818" points="72,658.6563,62,662.6563,72,666.6563,68,662.6563" style="stroke:#181818;stroke-width:1.0;"/><line style="stroke:#181818;stroke-width:1.0;stroke-dasharray:2.0,2.0;" x1="66" x2="317" y1="662.6563" y2="662.6563"/><text fill="#000000" font-family="sans-serif" font-size="13" lengthAdjust="spacing" textLength="123" x="78" y="657.5903">Too many requests</text><polygon fill="#181818" points="306,687.7891,316,691.7891,306,695.7891,310,691.7891" style="stroke:#181818;stroke-width:1.0;"/><line style="stroke:#181818;stroke-width:1.0;stroke-dasharray:2.0,2.0;" x1="61" x2="312" y1="691.7891" y2="691.7891"/><text fill="#000000" font-family="sans-serif" font-size="13" lengthAdjust="spacing" textLength="139" x="68" y="686.7231">Shows error message</text><line style="stroke:#000000;stroke-width:1.0;stroke-dasharray:2.0,2.0;" x1="20" x2="1542.5" y1="700.7891" y2="700.7891"/><text fill="#000000" font-family="sans-serif" font-size="11" font-weight="bold" lengthAdjust="spacing" textLength="289" x="25" y="710.9995">[Bucket with capacity (Transaction allowed)]</text><polygon fill="#181818" points="559,731.7266,569,735.7266,559,739.7266,563,735.7266" style="stroke:#181818;stroke-width:1.0;"/><line style="stroke:#181818;stroke-width:1.0;" x1="318" x2="565" y1="735.7266" y2="735.7266"/><text fill="#000000" font-family="sans-serif" font-size="13" lengthAdjust="spacing" textLength="190" x="325" y="730.6606">Request to create transaction</text><polygon fill="#181818" points="776,760.8594,786,764.8594,776,768.8594,780,764.8594" style="stroke:#181818;stroke-width:1.0;"/><line style="stroke:#181818;stroke-width:1.0;" x1="571" x2="782" y1="764.8594" y2="764.8594"/><text fill="#000000" font-family="sans-serif" font-size="13" lengthAdjust="spacing" textLength="113" x="578" y="759.7935">Consume 1 token</text><polygon fill="#181818" points="1037,789.9922,1047,793.9922,1037,797.9922,1041,793.9922" style="stroke:#181818;stroke-width:1.0;"/><line style="stroke:#181818;stroke-width:1.0;" x1="571" x2="1043" y1="793.9922" y2="793.9922"/><text fill="#000000" font-family="sans-serif" font-size="13" lengthAdjust="spacing" textLength="288" x="578" y="788.9263">Check if destination Pix key belongs to a user</text><line style="stroke:#181818;stroke-width:1.0;" x1="1049" x2="1091" y1="823.125" y2="823.125"/><line style="stroke:#181818;stroke-width:1.0;" x1="1091" x2="1091" y1="823.125" y2="836.125"/><line style="stroke:#181818;stroke-width:1.0;" x1="1050" x2="1091" y1="836.125" y2="836.125"/><polygon fill="#181818" points="1060,832.125,1050,836.125,1060,840.125,1056,836.125" style="stroke:#181818;stroke-width:1.0;"/><text fill="#000000" font-family="sans-serif" font-size="13" lengthAdjust="spacing" textLength="69" x="1056" y="818.0591">Processing</text><path d="M30,851.125 L94,851.125 L94,858.2578 L84,868.2578 L30,868.2578 L30,851.125 " fill="#EEEEEE" style="stroke:#000000;stroke-width:1.5;"/><rect fill="none" height="177.6016" style="stroke:#000000;stroke-width:1.5;" width="1110.5" x="30" y="851.125"/><text fill="#000000" font-family="sans-serif" font-size="13" font-weight="bold" lengthAdjust="spacing" textLength="19" x="45" y="864.1919">alt</text><text fill="#000000" font-family="sans-serif" font-size="11" font-weight="bold" lengthAdjust="spacing" textLength="61" x="109" y="863.3354">[success]</text><polygon fill="#181818" points="582,885.3906,572,889.3906,582,893.3906,578,889.3906" style="stroke:#181818;stroke-width:1.0;"/><line style="stroke:#181818;stroke-width:1.0;stroke-dasharray:2.0,2.0;" x1="576" x2="1048" y1="889.3906" y2="889.3906"/><text fill="#000000" font-family="sans-serif" font-size="13" lengthAdjust="spacing" textLength="159" x="588" y="884.3247">Pix key belongs to a user</text><line style="stroke:#000000;stroke-width:1.0;stroke-dasharray:2.0,2.0;" x1="30" x2="1140.5" y1="898.3906" y2="898.3906"/><text fill="#000000" font-family="sans-serif" font-size="11" font-weight="bold" lengthAdjust="spacing" textLength="41" x="35" y="908.6011">[error]</text><polygon fill="#181818" points="582,929.3281,572,933.3281,582,937.3281,578,933.3281" style="stroke:#181818;stroke-width:1.0;"/><line style="stroke:#181818;stroke-width:1.0;stroke-dasharray:2.0,2.0;" x1="576" x2="1048" y1="933.3281" y2="933.3281"/><text fill="#000000" font-family="sans-serif" font-size="13" lengthAdjust="spacing" textLength="212" x="588" y="928.2622">Pix key does not belong to a user</text><polygon fill="#181818" points="329,958.4609,319,962.4609,329,966.4609,325,962.4609" style="stroke:#181818;stroke-width:1.0;"/><line style="stroke:#181818;stroke-width:1.0;stroke-dasharray:2.0,2.0;" x1="323" x2="570" y1="962.4609" y2="962.4609"/><text fill="#000000" font-family="sans-serif" font-size="13" lengthAdjust="spacing" textLength="140" x="335" y="957.395">Return error message</text><polygon fill="#181818" points="72,987.5938,62,991.5938,72,995.5938,68,991.5938" style="stroke:#181818;stroke-width:1.0;"/><line style="stroke:#181818;stroke-width:1.0;stroke-dasharray:2.0,2.0;" x1="66" x2="317" y1="991.5938" y2="991.5938"/><text fill="#000000" font-family="sans-serif" font-size="13" lengthAdjust="spacing" textLength="181" x="78" y="986.5278">Display error toast message</text><polygon fill="#181818" points="306,1016.7266,316,1020.7266,306,1024.7266,310,1020.7266" style="stroke:#181818;stroke-width:1.0;"/><line style="stroke:#181818;stroke-width:1.0;stroke-dasharray:2.0,2.0;" x1="61" x2="312" y1="1020.7266" y2="1020.7266"/><text fill="#000000" font-family="sans-serif" font-size="13" lengthAdjust="spacing" textLength="134" x="68" y="1015.6606">Views error message</text><polygon fill="#181818" points="1037,1052.8594,1047,1056.8594,1037,1060.8594,1041,1056.8594" style="stroke:#181818;stroke-width:1.0;"/><line style="stroke:#181818;stroke-width:1.0;" x1="571" x2="1043" y1="1056.8594" y2="1056.8594"/><text fill="#000000" font-family="sans-serif" font-size="13" lengthAdjust="spacing" textLength="454" x="578" y="1051.7935">Check if destination user belongs to the same tenant as the origin user</text><line style="stroke:#181818;stroke-width:1.0;" x1="1049" x2="1091" y1="1085.9922" y2="1085.9922"/><line style="stroke:#181818;stroke-width:1.0;" x1="1091" x2="1091" y1="1085.9922" y2="1098.9922"/><line style="stroke:#181818;stroke-width:1.0;" x1="1050" x2="1091" y1="1098.9922" y2="1098.9922"/><polygon fill="#181818" points="1060,1094.9922,1050,1098.9922,1060,1102.9922,1056,1098.9922" style="stroke:#181818;stroke-width:1.0;"/><text fill="#000000" font-family="sans-serif" font-size="13" lengthAdjust="spacing" textLength="69" x="1056" y="1080.9263">Processing</text><path d="M30,1113.9922 L94,1113.9922 L94,1121.125 L84,1131.125 L30,1131.125 L30,1113.9922 " fill="#EEEEEE" style="stroke:#000000;stroke-width:1.5;"/><rect fill="none" height="177.6016" style="stroke:#000000;stroke-width:1.5;" width="1110.5" x="30" y="1113.9922"/><text fill="#000000" font-family="sans-serif" font-size="13" font-weight="bold" lengthAdjust="spacing" textLength="19" x="45" y="1127.0591">alt</text><text fill="#000000" font-family="sans-serif" font-size="11" font-weight="bold" lengthAdjust="spacing" textLength="61" x="109" y="1126.2026">[success]</text><polygon fill="#181818" points="582,1148.2578,572,1152.2578,582,1156.2578,578,1152.2578" style="stroke:#181818;stroke-width:1.0;"/><line style="stroke:#181818;stroke-width:1.0;stroke-dasharray:2.0,2.0;" x1="576" x2="1048" y1="1152.2578" y2="1152.2578"/><text fill="#000000" font-family="sans-serif" font-size="13" lengthAdjust="spacing" textLength="212" x="588" y="1147.1919">Users belong to the same tenant</text><line style="stroke:#000000;stroke-width:1.0;stroke-dasharray:2.0,2.0;" x1="30" x2="1140.5" y1="1161.2578" y2="1161.2578"/><text fill="#000000" font-family="sans-serif" font-size="11" font-weight="bold" lengthAdjust="spacing" textLength="41" x="35" y="1171.4683">[error]</text><polygon fill="#181818" points="582,1192.1953,572,1196.1953,582,1200.1953,578,1196.1953" style="stroke:#181818;stroke-width:1.0;"/><line style="stroke:#181818;stroke-width:1.0;stroke-dasharray:2.0,2.0;" x1="576" x2="1048" y1="1196.1953" y2="1196.1953"/><text fill="#000000" font-family="sans-serif" font-size="13" lengthAdjust="spacing" textLength="211" x="588" y="1191.1294">Users belong to different tenants</text><polygon fill="#181818" points="329,1221.3281,319,1225.3281,329,1229.3281,325,1225.3281" style="stroke:#181818;stroke-width:1.0;"/><line style="stroke:#181818;stroke-width:1.0;stroke-dasharray:2.0,2.0;" x1="323" x2="570" y1="1225.3281" y2="1225.3281"/><text fill="#000000" font-family="sans-serif" font-size="13" lengthAdjust="spacing" textLength="140" x="335" y="1220.2622">Return error message</text><polygon fill="#181818" points="72,1250.4609,62,1254.4609,72,1258.4609,68,1254.4609" style="stroke:#181818;stroke-width:1.0;"/><line style="stroke:#181818;stroke-width:1.0;stroke-dasharray:2.0,2.0;" x1="66" x2="317" y1="1254.4609" y2="1254.4609"/><text fill="#000000" font-family="sans-serif" font-size="13" lengthAdjust="spacing" textLength="181" x="78" y="1249.395">Display error toast message</text><polygon fill="#181818" points="306,1279.5938,316,1283.5938,306,1287.5938,310,1283.5938" style="stroke:#181818;stroke-width:1.0;"/><line style="stroke:#181818;stroke-width:1.0;stroke-dasharray:2.0,2.0;" x1="61" x2="312" y1="1283.5938" y2="1283.5938"/><text fill="#000000" font-family="sans-serif" font-size="13" lengthAdjust="spacing" textLength="134" x="68" y="1278.5278">Views error message</text><polygon fill="#181818" points="1319.5,1315.7266,1329.5,1319.7266,1319.5,1323.7266,1323.5,1319.7266" style="stroke:#181818;stroke-width:1.0;"/><line style="stroke:#181818;stroke-width:1.0;" x1="571" x2="1325.5" y1="1319.7266" y2="1319.7266"/><text fill="#000000" font-family="sans-serif" font-size="13" lengthAdjust="spacing" textLength="228" x="578" y="1314.6606">Verify if Pix key exists in Bacen DICT</text><line style="stroke:#181818;stroke-width:1.0;" x1="1331.5" x2="1373.5" y1="1348.8594" y2="1348.8594"/><line style="stroke:#181818;stroke-width:1.0;" x1="1373.5" x2="1373.5" y1="1348.8594" y2="1361.8594"/><line style="stroke:#181818;stroke-width:1.0;" x1="1332.5" x2="1373.5" y1="1361.8594" y2="1361.8594"/><polygon fill="#181818" points="1342.5,1357.8594,1332.5,1361.8594,1342.5,1365.8594,1338.5,1361.8594" style="stroke:#181818;stroke-width:1.0;"/><text fill="#000000" font-family="sans-serif" font-size="13" lengthAdjust="spacing" textLength="69" x="1338.5" y="1343.7935">Processing</text><path d="M30,1376.8594 L94,1376.8594 L94,1383.9922 L84,1393.9922 L30,1393.9922 L30,1376.8594 " fill="#EEEEEE" style="stroke:#000000;stroke-width:1.5;"/><rect fill="none" height="177.6016" style="stroke:#000000;stroke-width:1.5;" width="1502.5" x="30" y="1376.8594"/><text fill="#000000" font-family="sans-serif" font-size="13" font-weight="bold" lengthAdjust="spacing" textLength="19" x="45" y="1389.9263">alt</text><text fill="#000000" font-family="sans-serif" font-size="11" font-weight="bold" lengthAdjust="spacing" textLength="61" x="109" y="1389.0698">[success]</text><polygon fill="#181818" points="582,1411.125,572,1415.125,582,1419.125,578,1415.125" style="stroke:#181818;stroke-width:1.0;"/><line style="stroke:#181818;stroke-width:1.0;stroke-dasharray:2.0,2.0;" x1="576" x2="1330.5" y1="1415.125" y2="1415.125"/><text fill="#000000" font-family="sans-serif" font-size="13" lengthAdjust="spacing" textLength="91" x="588" y="1410.0591">Pix key is valid</text><line style="stroke:#000000;stroke-width:1.0;stroke-dasharray:2.0,2.0;" x1="30" x2="1532.5" y1="1424.125" y2="1424.125"/><text fill="#000000" font-family="sans-serif" font-size="11" font-weight="bold" lengthAdjust="spacing" textLength="41" x="35" y="1434.3354">[error]</text><polygon fill="#181818" points="582,1455.0625,572,1459.0625,582,1463.0625,578,1459.0625" style="stroke:#181818;stroke-width:1.0;"/><line style="stroke:#181818;stroke-width:1.0;stroke-dasharray:2.0,2.0;" x1="576" x2="1330.5" y1="1459.0625" y2="1459.0625"/><text fill="#000000" font-family="sans-serif" font-size="13" lengthAdjust="spacing" textLength="102" x="588" y="1453.9966">Pix key is invalid</text><polygon fill="#181818" points="329,1484.1953,319,1488.1953,329,1492.1953,325,1488.1953" style="stroke:#181818;stroke-width:1.0;"/><line style="stroke:#181818;stroke-width:1.0;stroke-dasharray:2.0,2.0;" x1="323" x2="570" y1="1488.1953" y2="1488.1953"/><text fill="#000000" font-family="sans-serif" font-size="13" lengthAdjust="spacing" textLength="140" x="335" y="1483.1294">Return error message</text><polygon fill="#181818" points="72,1513.3281,62,1517.3281,72,1521.3281,68,1517.3281" style="stroke:#181818;stroke-width:1.0;"/><line style="stroke:#181818;stroke-width:1.0;stroke-dasharray:2.0,2.0;" x1="66" x2="317" y1="1517.3281" y2="1517.3281"/><text fill="#000000" font-family="sans-serif" font-size="13" lengthAdjust="spacing" textLength="181" x="78" y="1512.2622">Display error toast message</text><polygon fill="#181818" points="306,1542.4609,316,1546.4609,306,1550.4609,310,1546.4609" style="stroke:#181818;stroke-width:1.0;"/><line style="stroke:#181818;stroke-width:1.0;stroke-dasharray:2.0,2.0;" x1="61" x2="312" y1="1546.4609" y2="1546.4609"/><text fill="#000000" font-family="sans-serif" font-size="13" lengthAdjust="spacing" textLength="134" x="68" y="1541.395">Views error message</text><polygon fill="#181818" points="1037,1578.5938,1047,1582.5938,1037,1586.5938,1041,1582.5938" style="stroke:#181818;stroke-width:1.0;"/><line style="stroke:#181818;stroke-width:1.0;" x1="571" x2="1043" y1="1582.5938" y2="1582.5938"/><text fill="#000000" font-family="sans-serif" font-size="13" lengthAdjust="spacing" textLength="212" x="578" y="1577.5278">Save transaction in the database</text><line style="stroke:#181818;stroke-width:1.0;" x1="1049" x2="1091" y1="1611.7266" y2="1611.7266"/><line style="stroke:#181818;stroke-width:1.0;" x1="1091" x2="1091" y1="1611.7266" y2="1624.7266"/><line style="stroke:#181818;stroke-width:1.0;" x1="1050" x2="1091" y1="1624.7266" y2="1624.7266"/><polygon fill="#181818" points="1060,1620.7266,1050,1624.7266,1060,1628.7266,1056,1624.7266" style="stroke:#181818;stroke-width:1.0;"/><text fill="#000000" font-family="sans-serif" font-size="13" lengthAdjust="spacing" textLength="62" x="1056" y="1606.6606">Persisting</text><polygon fill="#181818" points="582,1649.8594,572,1653.8594,582,1657.8594,578,1653.8594" style="stroke:#181818;stroke-width:1.0;"/><line style="stroke:#181818;stroke-width:1.0;stroke-dasharray:2.0,2.0;" x1="576" x2="1048" y1="1653.8594" y2="1653.8594"/><text fill="#000000" font-family="sans-serif" font-size="13" lengthAdjust="spacing" textLength="40" x="588" y="1648.7935">Saved</text><polygon fill="#181818" points="776,1678.9922,786,1682.9922,776,1686.9922,780,1682.9922" style="stroke:#181818;stroke-width:1.0;"/><line style="stroke:#181818;stroke-width:1.0;" x1="571" x2="782" y1="1682.9922" y2="1682.9922"/><text fill="#000000" font-family="sans-serif" font-size="13" lengthAdjust="spacing" textLength="193" x="578" y="1677.9263">Rollback 1 token to the bucket</text><polygon fill="#181818" points="582,1708.125,572,1712.125,582,1716.125,578,1712.125" style="stroke:#181818;stroke-width:1.0;"/><line style="stroke:#181818;stroke-width:1.0;stroke-dasharray:2.0,2.0;" x1="576" x2="787" y1="1712.125" y2="1712.125"/><text fill="#000000" font-family="sans-serif" font-size="13" lengthAdjust="spacing" textLength="68" x="588" y="1707.0591">Rollbacked</text><polygon fill="#181818" points="329,1737.2578,319,1741.2578,329,1745.2578,325,1741.2578" style="stroke:#181818;stroke-width:1.0;"/><line style="stroke:#181818;stroke-width:1.0;stroke-dasharray:2.0,2.0;" x1="323" x2="570" y1="1741.2578" y2="1741.2578"/><text fill="#000000" font-family="sans-serif" font-size="13" lengthAdjust="spacing" textLength="196" x="335" y="1736.1919">Transaction saved successfully</text><polygon fill="#181818" points="329,1766.3906,319,1770.3906,329,1774.3906,325,1770.3906" style="stroke:#181818;stroke-width:1.0;"/><line style="stroke:#181818;stroke-width:1.0;stroke-dasharray:2.0,2.0;" x1="323" x2="570" y1="1770.3906" y2="1770.3906"/><text fill="#000000" font-family="sans-serif" font-size="13" lengthAdjust="spacing" textLength="229" x="335" y="1765.3247">Return transaction data in response</text><polygon fill="#181818" points="72,1795.5234,62,1799.5234,72,1803.5234,68,1799.5234" style="stroke:#181818;stroke-width:1.0;"/><line style="stroke:#181818;stroke-width:1.0;stroke-dasharray:2.0,2.0;" x1="66" x2="317" y1="1799.5234" y2="1799.5234"/><text fill="#000000" font-family="sans-serif" font-size="13" lengthAdjust="spacing" textLength="201" x="78" y="1794.4575">Display success toast message</text><polygon fill="#181818" points="306,1824.6563,316,1828.6563,306,1832.6563,310,1828.6563" style="stroke:#181818;stroke-width:1.0;"/><line style="stroke:#181818;stroke-width:1.0;stroke-dasharray:2.0,2.0;" x1="61" x2="312" y1="1828.6563" y2="1828.6563"/><text fill="#000000" font-family="sans-serif" font-size="13" lengthAdjust="spacing" textLength="154" x="68" y="1823.5903">Views success message</text><!--SRC=[tLRDRjGm4BxdAKOzBOS2vO9K8QJ-02eKKTe5phF9xCPQhnrifsquyHgy7a_2s75A4fnsL-BKmtQtoSpd-UQR6G_cJXlOE_9VUvaJJX9yh2N_88KgR-2SSDt0SPsloMLPXSQ9N5Ie7EoT6497C3UeBEPEQ0LljTd0xClPapr02wr1xxr_FSHuPx0gFv_3x8hCDPdMBpvi7mtj- -70xDAVVous76rq3UzZj0F7ZrgjzEanp4xHuG8jjVRnyT3s67DIS2fo1qSNP_216ZWfALzpb69JI_GfUtFBPogKuACKUOGBdjwH_TWjU6MPqXocPYxzy0vXNX8iMYRMyVaMReGhuU0vEBqcPPzEERx1l8GBSGjhZanglQuhS2KwA3HPzVldBmU6BAi8GW5woq-rWrmhMs_8ma6BFmaVtuEm35D9KiAML7WizpTYOhS6IbsRFawA_oJHbocYQOJ0-1gbAFuVvtjE4gezQvJZExGNsqT-HnBGq22VRGOtGjMEdcPPxC7zr-csEOHF5MkIjptdUZstqGNAPqlVMabFOCX1HnropQeYY8ar_rLS-HYWGgGxelGYARYriWnPWo-M4r8hTAKsuWUJdRt_DlS55JFx98CqJNYrlpy-Pmp6lZ5PmNeYNLUblWaSMJ2BAneX67ArKV1LK6j5nd1Nfsn9McfZyDaQyRbZurd7iSH5cME5kN0DpFhJSI4r6mJp7UZFIwETaqAjEEZlDLaN_BT8mLnhsA1gEZyR72DpdnyxfCsl0zd88pHfcWbAgM_kP_9llLosKN2L9Seu80qSFC9WBfsqxTVrSfPsYHFzC8viiOI23nMghV2kenSasSxwM11g5ZU0TPT47-R2w9pJm-aF9bvdM-V-KVX_585Nuw_hlOU5L8VyRmtaPntmn8c88y099H8bTTcMm5ZyBSlgLDXAOXFTdKRMT0ZIQowRE8NdHaAy1xNpHFkvz6rhaGiYx2hEtx_-4NVeIgZ_AIeCnF2ZmFOK68MngxPZk48ibsHuA4Sy-nYqzSbFtuzVoOXbuwNkYfnk1OygVut7FUpiP1uGKm2JkBktxGHEZAgRzLlA-o1Ol0WVYxXtvNo5ryFr9AwDHLoxfrkIsq3uPbzb3pIWFwBOuhwur58kaET8jz36PcrNqObJaWWKQK_UsUChkyVV-cYxsblMKZOxGKN5nskMJollknLVYJHU1nvGFuQIq7-WVcVMsmrOVVxy0G00]--></g></svg>