<?xml version="1.0" encoding="us-ascii" standalone="no"?><svg xmlns="http://www.w3.org/2000/svg" xmlns:xlink="http://www.w3.org/1999/xlink" contentStyleType="text/css" height="1693px" preserveAspectRatio="none" style="width:1360px;height:1693px;background:#FFFFFF;" version="1.1" viewBox="0 0 1360 1693" width="1360px" zoomAndPan="magnify"><defs/><g><text fill="#000000" font-family="sans-serif" font-size="14" font-weight="bold" lengthAdjust="spacing" textLength="321" x="521.25" y="27.9951">Crud GraphQL Relay - CreateTransaction</text><rect fill="none" height="104.5313" style="stroke:#000000;stroke-width:1.5;" width="783" x="10" y="258.125"/><rect fill="none" height="133.6641" style="stroke:#000000;stroke-width:1.5;" width="1171.5" x="10" y="447.9219"/><rect fill="none" height="234.0625" style="stroke:#000000;stroke-width:1.5;" width="1344.5" x="10" y="666.8516"/><rect fill="none" height="133.6641" style="stroke:#000000;stroke-width:1.5;" width="1344.5" x="10" y="1015.3125"/><line style="stroke:#181818;stroke-width:0.5;stroke-dasharray:5.0,5.0;" x1="37" x2="37" y1="118.5938" y2="1612.8359"/><line style="stroke:#181818;stroke-width:0.5;stroke-dasharray:5.0,5.0;" x1="361.5" x2="361.5" y1="118.5938" y2="1612.8359"/><line style="stroke:#181818;stroke-width:0.5;stroke-dasharray:5.0,5.0;" x1="717" x2="717" y1="118.5938" y2="1612.8359"/><line style="stroke:#181818;stroke-width:0.5;stroke-dasharray:5.0,5.0;" x1="1115.5" x2="1115.5" y1="118.5938" y2="1612.8359"/><line style="stroke:#181818;stroke-width:0.5;stroke-dasharray:5.0,5.0;" x1="1262.5" x2="1262.5" y1="118.5938" y2="1612.8359"/><text fill="#000000" font-family="sans-serif" font-size="14" lengthAdjust="spacing" textLength="28" x="20" y="115.292">Ator</text><ellipse cx="37" cy="50.7969" fill="#E2E2F0" rx="8" ry="8" style="stroke:#181818;stroke-width:0.5;"/><path d="M37,58.7969 L37,85.7969 M24,66.7969 L50,66.7969 M37,85.7969 L24,100.7969 M37,85.7969 L50,100.7969 " fill="none" style="stroke:#181818;stroke-width:0.5;"/><text fill="#000000" font-family="sans-serif" font-size="14" lengthAdjust="spacing" textLength="28" x="20" y="1624.8311">Ator</text><ellipse cx="37" cy="1636.6328" fill="#E2E2F0" rx="8" ry="8" style="stroke:#181818;stroke-width:0.5;"/><path d="M37,1644.6328 L37,1671.6328 M24,1652.6328 L50,1652.6328 M37,1671.6328 L24,1686.6328 M37,1671.6328 L50,1686.6328 " fill="none" style="stroke:#181818;stroke-width:0.5;"/><rect fill="#E2E2F0" height="30.2969" rx="2.5" ry="2.5" style="stroke:#181818;stroke-width:0.5;" width="211" x="256.5" y="87.2969"/><text fill="#000000" font-family="sans-serif" font-size="14" lengthAdjust="spacing" textLength="197" x="263.5" y="107.292">Create Transaction Form (UI)</text><rect fill="#E2E2F0" height="30.2969" rx="2.5" ry="2.5" style="stroke:#181818;stroke-width:0.5;" width="211" x="256.5" y="1611.8359"/><text fill="#000000" font-family="sans-serif" font-size="14" lengthAdjust="spacing" textLength="197" x="263.5" y="1631.8311">Create Transaction Form (UI)</text><rect fill="#E2E2F0" height="30.2969" rx="2.5" ry="2.5" style="stroke:#181818;stroke-width:0.5;" width="132" x="651" y="87.2969"/><text fill="#000000" font-family="sans-serif" font-size="14" lengthAdjust="spacing" textLength="118" x="658" y="107.292">GraphQL (Server)</text><rect fill="#E2E2F0" height="30.2969" rx="2.5" ry="2.5" style="stroke:#181818;stroke-width:0.5;" width="132" x="651" y="1611.8359"/><text fill="#000000" font-family="sans-serif" font-size="14" lengthAdjust="spacing" textLength="118" x="658" y="1631.8311">GraphQL (Server)</text><rect fill="#E2E2F0" height="30.2969" rx="2.5" ry="2.5" style="stroke:#181818;stroke-width:0.5;" width="111" x="1060.5" y="87.2969"/><text fill="#000000" font-family="sans-serif" font-size="14" lengthAdjust="spacing" textLength="97" x="1067.5" y="107.292">Cache (Redis)</text><rect fill="#E2E2F0" height="30.2969" rx="2.5" ry="2.5" style="stroke:#181818;stroke-width:0.5;" width="111" x="1060.5" y="1611.8359"/><text fill="#000000" font-family="sans-serif" font-size="14" lengthAdjust="spacing" textLength="97" x="1067.5" y="1631.8311">Cache (Redis)</text><rect fill="#E2E2F0" height="30.2969" rx="2.5" ry="2.5" style="stroke:#181818;stroke-width:0.5;" width="163" x="1181.5" y="87.2969"/><text fill="#000000" font-family="sans-serif" font-size="14" lengthAdjust="spacing" textLength="149" x="1188.5" y="107.292">MongoDB (Database)</text><rect fill="#E2E2F0" height="30.2969" rx="2.5" ry="2.5" style="stroke:#181818;stroke-width:0.5;" width="163" x="1181.5" y="1611.8359"/><text fill="#000000" font-family="sans-serif" font-size="14" lengthAdjust="spacing" textLength="149" x="1188.5" y="1631.8311">MongoDB (Database)</text><path d="M906,133.5938 L906,158.5938 L1325,158.5938 L1325,143.5938 L1315,133.5938 L906,133.5938 " fill="#FEFFDD" style="stroke:#181818;stroke-width:0.5;"/><path d="M1315,133.5938 L1315,143.5938 L1325,143.5938 L1315,133.5938 " fill="#FEFFDD" style="stroke:#181818;stroke-width:0.5;"/><text fill="#000000" font-family="sans-serif" font-size="13" lengthAdjust="spacing" textLength="398" x="912" y="150.6606">A chave de idempot&#234;ncia tem 5 minutos de dura&#231;&#227;o no cache</text><polygon fill="#181818" points="350,180.8594,360,184.8594,350,188.8594,354,184.8594" style="stroke:#181818;stroke-width:1.0;"/><line style="stroke:#181818;stroke-width:1.0;" x1="37" x2="356" y1="184.8594" y2="184.8594"/><text fill="#000000" font-family="sans-serif" font-size="13" lengthAdjust="spacing" textLength="301" x="44" y="179.7935">Abrir modal/formul&#225;rio de cria&#231;&#227;o de transa&#231;&#227;o</text><polygon fill="#181818" points="705,209.9922,715,213.9922,705,217.9922,709,213.9922" style="stroke:#181818;stroke-width:1.0;"/><line style="stroke:#181818;stroke-width:1.0;" x1="362" x2="711" y1="213.9922" y2="213.9922"/><text fill="#000000" font-family="sans-serif" font-size="13" lengthAdjust="spacing" textLength="186" x="369" y="208.9263">Enviar token de autentica&#231;&#227;o</text><polygon fill="#181818" points="705,239.125,715,243.125,705,247.125,709,243.125" style="stroke:#181818;stroke-width:1.0;"/><line style="stroke:#181818;stroke-width:1.0;" x1="362" x2="711" y1="243.125" y2="243.125"/><text fill="#000000" font-family="sans-serif" font-size="13" lengthAdjust="spacing" textLength="170" x="369" y="238.0591">Enviar dados da transa&#231;&#227;o</text><path d="M10,258.125 L74,258.125 L74,265.2578 L64,275.2578 L10,275.2578 L10,258.125 " fill="#EEEEEE" style="stroke:#000000;stroke-width:1.5;"/><rect fill="none" height="104.5313" style="stroke:#000000;stroke-width:1.5;" width="783" x="10" y="258.125"/><text fill="#000000" font-family="sans-serif" font-size="13" font-weight="bold" lengthAdjust="spacing" textLength="19" x="25" y="271.1919">alt</text><text fill="#000000" font-family="sans-serif" font-size="11" font-weight="bold" lengthAdjust="spacing" textLength="266" x="89" y="270.3354">[Usu&#225;rio n&#227;o autorizado (JWT &#233; inv&#225;lido)]</text><polygon fill="#181818" points="373,292.3906,363,296.3906,373,300.3906,369,296.3906" style="stroke:#181818;stroke-width:1.0;"/><line style="stroke:#181818;stroke-width:1.0;stroke-dasharray:2.0,2.0;" x1="367" x2="716" y1="296.3906" y2="296.3906"/><text fill="#000000" font-family="sans-serif" font-size="13" lengthAdjust="spacing" textLength="149" x="379" y="291.3247">Usu&#225;rio n&#227;o autorizado</text><polygon fill="#181818" points="48,321.5234,38,325.5234,48,329.5234,44,325.5234" style="stroke:#181818;stroke-width:1.0;"/><line style="stroke:#181818;stroke-width:1.0;stroke-dasharray:2.0,2.0;" x1="42" x2="361" y1="325.5234" y2="325.5234"/><text fill="#000000" font-family="sans-serif" font-size="13" lengthAdjust="spacing" textLength="231" x="54" y="320.4575">Exibir mensagem de n&#227;o autorizado</text><polygon fill="#181818" points="350,350.6563,360,354.6563,350,358.6563,354,354.6563" style="stroke:#181818;stroke-width:1.0;"/><line style="stroke:#181818;stroke-width:1.0;stroke-dasharray:2.0,2.0;" x1="37" x2="356" y1="354.6563" y2="354.6563"/><text fill="#000000" font-family="sans-serif" font-size="13" lengthAdjust="spacing" textLength="281" x="44" y="349.5903">Exibir mensagem de erro de n&#227;o autorizado</text><polygon fill="#181818" points="1104,386.7891,1114,390.7891,1104,394.7891,1108,390.7891" style="stroke:#181818;stroke-width:1.0;"/><line style="stroke:#181818;stroke-width:1.0;" x1="717" x2="1110" y1="390.7891" y2="390.7891"/><text fill="#000000" font-family="sans-serif" font-size="13" lengthAdjust="spacing" textLength="375" x="724" y="385.7231">Verificar se a chave de idempot&#234;ncia j&#225; foi usada no cache</text><line style="stroke:#181818;stroke-width:1.0;" x1="1116" x2="1158" y1="419.9219" y2="419.9219"/><line style="stroke:#181818;stroke-width:1.0;" x1="1158" x2="1158" y1="419.9219" y2="432.9219"/><line style="stroke:#181818;stroke-width:1.0;" x1="1117" x2="1158" y1="432.9219" y2="432.9219"/><polygon fill="#181818" points="1127,428.9219,1117,432.9219,1127,436.9219,1123,432.9219" style="stroke:#181818;stroke-width:1.0;"/><text fill="#000000" font-family="sans-serif" font-size="13" lengthAdjust="spacing" textLength="82" x="1123" y="414.856">Processando</text><path d="M10,447.9219 L74,447.9219 L74,455.0547 L64,465.0547 L10,465.0547 L10,447.9219 " fill="#EEEEEE" style="stroke:#000000;stroke-width:1.5;"/><rect fill="none" height="133.6641" style="stroke:#000000;stroke-width:1.5;" width="1171.5" x="10" y="447.9219"/><text fill="#000000" font-family="sans-serif" font-size="13" font-weight="bold" lengthAdjust="spacing" textLength="19" x="25" y="460.9888">alt</text><text fill="#000000" font-family="sans-serif" font-size="11" font-weight="bold" lengthAdjust="spacing" textLength="125" x="89" y="460.1323">[cache encontrado]</text><polygon fill="#181818" points="728,482.1875,718,486.1875,728,490.1875,724,486.1875" style="stroke:#181818;stroke-width:1.0;"/><line style="stroke:#181818;stroke-width:1.0;stroke-dasharray:2.0,2.0;" x1="722" x2="1115" y1="486.1875" y2="486.1875"/><text fill="#000000" font-family="sans-serif" font-size="13" lengthAdjust="spacing" textLength="288" x="734" y="481.1216">chave de idempot&#234;ncia encontrada no cache</text><polygon fill="#181818" points="373,511.3203,363,515.3203,373,519.3203,369,515.3203" style="stroke:#181818;stroke-width:1.0;"/><line style="stroke:#181818;stroke-width:1.0;stroke-dasharray:2.0,2.0;" x1="367" x2="716" y1="515.3203" y2="515.3203"/><text fill="#000000" font-family="sans-serif" font-size="13" lengthAdjust="spacing" textLength="331" x="379" y="510.2544">Resposta com registro de transa&#231;&#227;o salvo no cache</text><polygon fill="#181818" points="48,540.4531,38,544.4531,48,548.4531,44,544.4531" style="stroke:#181818;stroke-width:1.0;"/><line style="stroke:#181818;stroke-width:1.0;stroke-dasharray:2.0,2.0;" x1="42" x2="361" y1="544.4531" y2="544.4531"/><text fill="#000000" font-family="sans-serif" font-size="13" lengthAdjust="spacing" textLength="187" x="54" y="539.3872">Exibir mensagem de sucesso</text><polygon fill="#181818" points="350,569.5859,360,573.5859,350,577.5859,354,573.5859" style="stroke:#181818;stroke-width:1.0;"/><line style="stroke:#181818;stroke-width:1.0;stroke-dasharray:2.0,2.0;" x1="37" x2="356" y1="573.5859" y2="573.5859"/><text fill="#000000" font-family="sans-serif" font-size="13" lengthAdjust="spacing" textLength="187" x="44" y="568.52">Exibir mensagem de sucesso</text><polygon fill="#181818" points="1251,605.7188,1261,609.7188,1251,613.7188,1255,609.7188" style="stroke:#181818;stroke-width:1.0;"/><line style="stroke:#181818;stroke-width:1.0;" x1="717" x2="1257" y1="609.7188" y2="609.7188"/><text fill="#000000" font-family="sans-serif" font-size="13" lengthAdjust="spacing" textLength="439" x="724" y="604.6528">Verificar se a chave de idempot&#234;ncia j&#225; foi usada no banco de dados</text><line style="stroke:#181818;stroke-width:1.0;" x1="1263" x2="1305" y1="638.8516" y2="638.8516"/><line style="stroke:#181818;stroke-width:1.0;" x1="1305" x2="1305" y1="638.8516" y2="651.8516"/><line style="stroke:#181818;stroke-width:1.0;" x1="1264" x2="1305" y1="651.8516" y2="651.8516"/><polygon fill="#181818" points="1274,647.8516,1264,651.8516,1274,655.8516,1270,651.8516" style="stroke:#181818;stroke-width:1.0;"/><text fill="#000000" font-family="sans-serif" font-size="13" lengthAdjust="spacing" textLength="82" x="1270" y="633.7856">Processando</text><path d="M10,666.8516 L74,666.8516 L74,673.9844 L64,683.9844 L10,683.9844 L10,666.8516 " fill="#EEEEEE" style="stroke:#000000;stroke-width:1.5;"/><rect fill="none" height="234.0625" style="stroke:#000000;stroke-width:1.5;" width="1344.5" x="10" y="666.8516"/><text fill="#000000" font-family="sans-serif" font-size="13" font-weight="bold" lengthAdjust="spacing" textLength="19" x="25" y="679.9185">alt</text><text fill="#000000" font-family="sans-serif" font-size="11" font-weight="bold" lengthAdjust="spacing" textLength="218" x="89" y="679.062">[chave de idempot&#234;ncia j&#225; existe]</text><polygon fill="#181818" points="728,701.1172,718,705.1172,728,709.1172,724,705.1172" style="stroke:#181818;stroke-width:1.0;"/><line style="stroke:#181818;stroke-width:1.0;stroke-dasharray:2.0,2.0;" x1="722" x2="1262" y1="705.1172" y2="705.1172"/><text fill="#000000" font-family="sans-serif" font-size="13" lengthAdjust="spacing" textLength="352" x="734" y="700.0513">chave de idempot&#234;ncia encontrada no banco de dados</text><polygon fill="#181818" points="1104,730.25,1114,734.25,1104,738.25,1108,734.25" style="stroke:#181818;stroke-width:1.0;"/><line style="stroke:#181818;stroke-width:1.0;" x1="717" x2="1110" y1="734.25" y2="734.25"/><text fill="#000000" font-family="sans-serif" font-size="13" lengthAdjust="spacing" textLength="243" x="724" y="729.1841">Salvar registro da transa&#231;&#227;o no cache</text><line style="stroke:#181818;stroke-width:1.0;" x1="1116" x2="1158" y1="763.3828" y2="763.3828"/><line style="stroke:#181818;stroke-width:1.0;" x1="1158" x2="1158" y1="763.3828" y2="776.3828"/><line style="stroke:#181818;stroke-width:1.0;" x1="1117" x2="1158" y1="776.3828" y2="776.3828"/><polygon fill="#181818" points="1127,772.3828,1117,776.3828,1127,780.3828,1123,776.3828" style="stroke:#181818;stroke-width:1.0;"/><text fill="#000000" font-family="sans-serif" font-size="13" lengthAdjust="spacing" textLength="121" x="1123" y="758.3169">Salvando no cache</text><polygon fill="#181818" points="728,801.5156,718,805.5156,728,809.5156,724,805.5156" style="stroke:#181818;stroke-width:1.0;"/><line style="stroke:#181818;stroke-width:1.0;stroke-dasharray:2.0,2.0;" x1="722" x2="1115" y1="805.5156" y2="805.5156"/><text fill="#000000" font-family="sans-serif" font-size="13" lengthAdjust="spacing" textLength="77" x="734" y="800.4497">Cache salvo</text><polygon fill="#181818" points="373,830.6484,363,834.6484,373,838.6484,369,834.6484" style="stroke:#181818;stroke-width:1.0;"/><line style="stroke:#181818;stroke-width:1.0;stroke-dasharray:2.0,2.0;" x1="367" x2="716" y1="834.6484" y2="834.6484"/><text fill="#000000" font-family="sans-serif" font-size="13" lengthAdjust="spacing" textLength="331" x="379" y="829.5825">Resposta com registro de transa&#231;&#227;o salvo no cache</text><polygon fill="#181818" points="48,859.7813,38,863.7813,48,867.7813,44,863.7813" style="stroke:#181818;stroke-width:1.0;"/><line style="stroke:#181818;stroke-width:1.0;stroke-dasharray:2.0,2.0;" x1="42" x2="361" y1="863.7813" y2="863.7813"/><text fill="#000000" font-family="sans-serif" font-size="13" lengthAdjust="spacing" textLength="187" x="54" y="858.7153">Exibir mensagem de sucesso</text><polygon fill="#181818" points="350,888.9141,360,892.9141,350,896.9141,354,892.9141" style="stroke:#181818;stroke-width:1.0;"/><line style="stroke:#181818;stroke-width:1.0;stroke-dasharray:2.0,2.0;" x1="37" x2="356" y1="892.9141" y2="892.9141"/><text fill="#000000" font-family="sans-serif" font-size="13" lengthAdjust="spacing" textLength="187" x="44" y="887.8481">Exibir mensagem de sucesso</text><polygon fill="#181818" points="728,925.0469,718,929.0469,728,933.0469,724,929.0469" style="stroke:#181818;stroke-width:1.0;"/><line style="stroke:#181818;stroke-width:1.0;stroke-dasharray:2.0,2.0;" x1="722" x2="1115" y1="929.0469" y2="929.0469"/><text fill="#000000" font-family="sans-serif" font-size="13" lengthAdjust="spacing" textLength="318" x="734" y="923.981">Chave de idempot&#234;ncia n&#227;o encontrada no cache</text><polygon fill="#181818" points="1251,954.1797,1261,958.1797,1251,962.1797,1255,958.1797" style="stroke:#181818;stroke-width:1.0;"/><line style="stroke:#181818;stroke-width:1.0;" x1="717" x2="1257" y1="958.1797" y2="958.1797"/><text fill="#000000" font-family="sans-serif" font-size="13" lengthAdjust="spacing" textLength="343" x="724" y="953.1138">Verificar se a conta de destino pertence a um usu&#225;rio</text><line style="stroke:#181818;stroke-width:1.0;" x1="1263" x2="1305" y1="987.3125" y2="987.3125"/><line style="stroke:#181818;stroke-width:1.0;" x1="1305" x2="1305" y1="987.3125" y2="1000.3125"/><line style="stroke:#181818;stroke-width:1.0;" x1="1264" x2="1305" y1="1000.3125" y2="1000.3125"/><polygon fill="#181818" points="1274,996.3125,1264,1000.3125,1274,1004.3125,1270,1000.3125" style="stroke:#181818;stroke-width:1.0;"/><text fill="#000000" font-family="sans-serif" font-size="13" lengthAdjust="spacing" textLength="82" x="1270" y="982.2466">Processando</text><path d="M10,1015.3125 L74,1015.3125 L74,1022.4453 L64,1032.4453 L10,1032.4453 L10,1015.3125 " fill="#EEEEEE" style="stroke:#000000;stroke-width:1.5;"/><rect fill="none" height="133.6641" style="stroke:#000000;stroke-width:1.5;" width="1344.5" x="10" y="1015.3125"/><text fill="#000000" font-family="sans-serif" font-size="13" font-weight="bold" lengthAdjust="spacing" textLength="19" x="25" y="1028.3794">alt</text><text fill="#000000" font-family="sans-serif" font-size="11" font-weight="bold" lengthAdjust="spacing" textLength="151" x="89" y="1027.5229">[conta n&#227;o encontrada]</text><polygon fill="#181818" points="728,1049.5781,718,1053.5781,728,1057.5781,724,1053.5781" style="stroke:#181818;stroke-width:1.0;"/><line style="stroke:#181818;stroke-width:1.0;stroke-dasharray:2.0,2.0;" x1="722" x2="1262" y1="1053.5781" y2="1053.5781"/><text fill="#000000" font-family="sans-serif" font-size="13" lengthAdjust="spacing" textLength="143" x="734" y="1048.5122">Conta n&#227;o encontrada</text><polygon fill="#181818" points="373,1078.7109,363,1082.7109,373,1086.7109,369,1082.7109" style="stroke:#181818;stroke-width:1.0;"/><line style="stroke:#181818;stroke-width:1.0;stroke-dasharray:2.0,2.0;" x1="367" x2="716" y1="1082.7109" y2="1082.7109"/><text fill="#000000" font-family="sans-serif" font-size="13" lengthAdjust="spacing" textLength="262" x="379" y="1077.645">Retornar mensagem de erro na resposta</text><polygon fill="#181818" points="48,1107.8438,38,1111.8438,48,1115.8438,44,1111.8438" style="stroke:#181818;stroke-width:1.0;"/><line style="stroke:#181818;stroke-width:1.0;stroke-dasharray:2.0,2.0;" x1="42" x2="361" y1="1111.8438" y2="1111.8438"/><text fill="#000000" font-family="sans-serif" font-size="13" lengthAdjust="spacing" textLength="161" x="54" y="1106.7778">Exibir mensagem de erro</text><polygon fill="#181818" points="350,1136.9766,360,1140.9766,350,1144.9766,354,1140.9766" style="stroke:#181818;stroke-width:1.0;"/><line style="stroke:#181818;stroke-width:1.0;stroke-dasharray:2.0,2.0;" x1="37" x2="356" y1="1140.9766" y2="1140.9766"/><text fill="#000000" font-family="sans-serif" font-size="13" lengthAdjust="spacing" textLength="161" x="44" y="1135.9106">Exibir mensagem de erro</text><polygon fill="#181818" points="728,1173.1094,718,1177.1094,728,1181.1094,724,1177.1094" style="stroke:#181818;stroke-width:1.0;"/><line style="stroke:#181818;stroke-width:1.0;stroke-dasharray:2.0,2.0;" x1="722" x2="1262" y1="1177.1094" y2="1177.1094"/><text fill="#000000" font-family="sans-serif" font-size="13" lengthAdjust="spacing" textLength="115" x="734" y="1172.0435">Conta encontrada</text><polygon fill="#181818" points="1251,1202.2422,1261,1206.2422,1251,1210.2422,1255,1206.2422" style="stroke:#181818;stroke-width:1.0;"/><line style="stroke:#181818;stroke-width:1.0;" x1="717" x2="1257" y1="1206.2422" y2="1206.2422"/><text fill="#000000" font-family="sans-serif" font-size="13" lengthAdjust="spacing" textLength="372" x="724" y="1201.1763">Debitar da conta de origem e creditar na conta de destino</text><line style="stroke:#181818;stroke-width:1.0;" x1="1263" x2="1305" y1="1235.375" y2="1235.375"/><line style="stroke:#181818;stroke-width:1.0;" x1="1305" x2="1305" y1="1235.375" y2="1248.375"/><line style="stroke:#181818;stroke-width:1.0;" x1="1264" x2="1305" y1="1248.375" y2="1248.375"/><polygon fill="#181818" points="1274,1244.375,1264,1248.375,1274,1252.375,1270,1248.375" style="stroke:#181818;stroke-width:1.0;"/><text fill="#000000" font-family="sans-serif" font-size="13" lengthAdjust="spacing" textLength="70" x="1270" y="1230.3091">Persistindo</text><polygon fill="#181818" points="728,1273.5078,718,1277.5078,728,1281.5078,724,1277.5078" style="stroke:#181818;stroke-width:1.0;"/><line style="stroke:#181818;stroke-width:1.0;stroke-dasharray:2.0,2.0;" x1="722" x2="1262" y1="1277.5078" y2="1277.5078"/><text fill="#000000" font-family="sans-serif" font-size="13" lengthAdjust="spacing" textLength="62" x="734" y="1272.4419">Persistido</text><polygon fill="#181818" points="1251,1302.6406,1261,1306.6406,1251,1310.6406,1255,1306.6406" style="stroke:#181818;stroke-width:1.0;"/><line style="stroke:#181818;stroke-width:1.0;" x1="717" x2="1257" y1="1306.6406" y2="1306.6406"/><text fill="#000000" font-family="sans-serif" font-size="13" lengthAdjust="spacing" textLength="234" x="724" y="1301.5747">Salvar transa&#231;&#227;o no banco de dados</text><line style="stroke:#181818;stroke-width:1.0;" x1="1263" x2="1305" y1="1335.7734" y2="1335.7734"/><line style="stroke:#181818;stroke-width:1.0;" x1="1305" x2="1305" y1="1335.7734" y2="1348.7734"/><line style="stroke:#181818;stroke-width:1.0;" x1="1264" x2="1305" y1="1348.7734" y2="1348.7734"/><polygon fill="#181818" points="1274,1344.7734,1264,1348.7734,1274,1352.7734,1270,1348.7734" style="stroke:#181818;stroke-width:1.0;"/><text fill="#000000" font-family="sans-serif" font-size="13" lengthAdjust="spacing" textLength="70" x="1270" y="1330.7075">Persistindo</text><polygon fill="#181818" points="728,1373.9063,718,1377.9063,728,1381.9063,724,1377.9063" style="stroke:#181818;stroke-width:1.0;"/><line style="stroke:#181818;stroke-width:1.0;stroke-dasharray:2.0,2.0;" x1="722" x2="1262" y1="1377.9063" y2="1377.9063"/><text fill="#000000" font-family="sans-serif" font-size="13" lengthAdjust="spacing" textLength="62" x="734" y="1372.8403">Persistido</text><polygon fill="#181818" points="1104,1403.0391,1114,1407.0391,1104,1411.0391,1108,1407.0391" style="stroke:#181818;stroke-width:1.0;"/><line style="stroke:#181818;stroke-width:1.0;" x1="717" x2="1110" y1="1407.0391" y2="1407.0391"/><text fill="#000000" font-family="sans-serif" font-size="13" lengthAdjust="spacing" textLength="243" x="724" y="1401.9731">Salvar registro de transa&#231;&#227;o no cache</text><line style="stroke:#181818;stroke-width:1.0;" x1="1116" x2="1158" y1="1436.1719" y2="1436.1719"/><line style="stroke:#181818;stroke-width:1.0;" x1="1158" x2="1158" y1="1436.1719" y2="1449.1719"/><line style="stroke:#181818;stroke-width:1.0;" x1="1117" x2="1158" y1="1449.1719" y2="1449.1719"/><polygon fill="#181818" points="1127,1445.1719,1117,1449.1719,1127,1453.1719,1123,1449.1719" style="stroke:#181818;stroke-width:1.0;"/><text fill="#000000" font-family="sans-serif" font-size="13" lengthAdjust="spacing" textLength="121" x="1123" y="1431.106">Salvando no cache</text><polygon fill="#181818" points="728,1474.3047,718,1478.3047,728,1482.3047,724,1478.3047" style="stroke:#181818;stroke-width:1.0;"/><line style="stroke:#181818;stroke-width:1.0;stroke-dasharray:2.0,2.0;" x1="722" x2="1115" y1="1478.3047" y2="1478.3047"/><text fill="#000000" font-family="sans-serif" font-size="13" lengthAdjust="spacing" textLength="77" x="734" y="1473.2388">Cache salvo</text><polygon fill="#181818" points="373,1503.4375,363,1507.4375,373,1511.4375,369,1507.4375" style="stroke:#181818;stroke-width:1.0;"/><line style="stroke:#181818;stroke-width:1.0;stroke-dasharray:2.0,2.0;" x1="367" x2="716" y1="1507.4375" y2="1507.4375"/><text fill="#000000" font-family="sans-serif" font-size="13" lengthAdjust="spacing" textLength="191" x="379" y="1502.3716">Transa&#231;&#227;o salva com sucesso</text><polygon fill="#181818" points="373,1532.5703,363,1536.5703,373,1540.5703,369,1536.5703" style="stroke:#181818;stroke-width:1.0;"/><line style="stroke:#181818;stroke-width:1.0;stroke-dasharray:2.0,2.0;" x1="367" x2="716" y1="1536.5703" y2="1536.5703"/><text fill="#000000" font-family="sans-serif" font-size="13" lengthAdjust="spacing" textLength="266" x="379" y="1531.5044">Retornar dados da transa&#231;&#227;o na resposta</text><polygon fill="#181818" points="48,1561.7031,38,1565.7031,48,1569.7031,44,1565.7031" style="stroke:#181818;stroke-width:1.0;"/><line style="stroke:#181818;stroke-width:1.0;stroke-dasharray:2.0,2.0;" x1="42" x2="361" y1="1565.7031" y2="1565.7031"/><text fill="#000000" font-family="sans-serif" font-size="13" lengthAdjust="spacing" textLength="187" x="54" y="1560.6372">Exibir mensagem de sucesso</text><polygon fill="#181818" points="350,1590.8359,360,1594.8359,350,1598.8359,354,1594.8359" style="stroke:#181818;stroke-width:1.0;"/><line style="stroke:#181818;stroke-width:1.0;stroke-dasharray:2.0,2.0;" x1="37" x2="356" y1="1594.8359" y2="1594.8359"/><text fill="#000000" font-family="sans-serif" font-size="13" lengthAdjust="spacing" textLength="187" x="44" y="1589.77">Exibir mensagem de sucesso</text><!--SRC=[tLPDZzCm4BtxLunwwXugJbnM26dPNH089DWFE4-JwQuXiQknKotycnK717yZVuonquyaTRfjkN6f6dlyPkQzvqamyvPXT2Q_8-MrBmZEkShX3UFy_jDxkA82lyD45WaztJ0QXvdNrYWrH_OwqtCq7aRDFhG2uBNb4iQtRqz6W6uR86ntCLOvnzV42-Bct7AnMUhbnEoUO7n5kNPDSFmRbxkH7wovinUlO7o17gVeg0bVBYjbhDHk9K4BuHJE8Bl71K5Ee7CgvzRNVqoc4JoLy1nARIflNTZEAyRwL_tJWh6GnVoguHGcBzEj2_oKDKDfSooUpMIbAkf7rZRWPQoNUFBWuy7ug99G8KU7fbEuD0kD3Dv-8nCmiF9aX8_ZO7BCGv_OAKLXuU7MLKtH9XGhMIph7n8DutTVRg3-3TeiwiT2v_P4GPe8U36PzFCEmGh6ajPmQ83NomSz3SIIBD-9KjB-DWoJhzYaOedPfiwGoPNgr1a8Q_lbCx6U2SSCJXWVCi_N-X5cLaFbK1XT-sK3r8Vzo3OZvz184O7p60zaCcj4ZzXDjwp0JHjWe90rGgkA0pIw8ZUtpakVjXGwxxJptFShE2mMjWr_b7ok2WJibcqLavPfUTEFrcYAGbQywU4ggDKyQIDloJGCJGz25YLrMyFj9Lglh3vWpqZN8eOqlj6gSw7RAWsRCM98Y-tetUvhOA8H_azxRJMSLYxEazITsz-iSXIZskIyblDpOXdhMTYhIZ5hCpJtSsV4wjMqsv7d0qSEa5J4CPWOjmQ5-aRlOqKCE4_EzIZVaosskXlMveAcsiTtuqONULM4PE7zBNu8ksPRjRGyn4w7RP5dHtshiAseDjRoclUkzZuJxD-Bs3bkA3rk3Xas-uyQDMZBdYjlUlEacJYh-xulojhRgM-bZhytxZvyGZqvd_u2]--></g></svg>