<?xml version="1.0" encoding="us-ascii" standalone="no"?><svg xmlns="http://www.w3.org/2000/svg" xmlns:xlink="http://www.w3.org/1999/xlink" contentStyleType="text/css" height="1941px" preserveAspectRatio="none" style="width:1734px;height:1941px;background:#FFFFFF;" version="1.1" viewBox="0 0 1734 1941" width="1734px" zoomAndPan="magnify"><defs/><g><text fill="#000000" font-family="sans-serif" font-size="14" font-weight="bold" lengthAdjust="spacing" textLength="210" x="760.5" y="27.9951">Multitenancy Leaky Bucket</text><rect fill="none" height="1374.7344" style="stroke:#000000;stroke-width:1.5;" width="1656.5" x="10" y="468.9219"/><rect fill="none" height="1241.3984" style="stroke:#000000;stroke-width:1.5;" width="1636.5" x="20" y="595.2578"/><rect fill="none" height="177.6016" style="stroke:#000000;stroke-width:1.5;" width="1224.5" x="30" y="851.125"/><rect fill="none" height="177.6016" style="stroke:#000000;stroke-width:1.5;" width="1224.5" x="30" y="1113.9922"/><rect fill="none" height="177.6016" style="stroke:#000000;stroke-width:1.5;" width="1616.5" x="30" y="1376.8594"/><line style="stroke:#181818;stroke-width:0.5;stroke-dasharray:5.0,5.0;" x1="61" x2="61" y1="118.5938" y2="1860.6563"/><line style="stroke:#181818;stroke-width:0.5;stroke-dasharray:5.0,5.0;" x1="337.5" x2="337.5" y1="118.5938" y2="1860.6563"/><line style="stroke:#181818;stroke-width:0.5;stroke-dasharray:5.0,5.0;" x1="624" x2="624" y1="118.5938" y2="1860.6563"/><line style="stroke:#181818;stroke-width:0.5;stroke-dasharray:5.0,5.0;" x1="814.5" x2="814.5" y1="118.5938" y2="1860.6563"/><line style="stroke:#181818;stroke-width:0.5;stroke-dasharray:5.0,5.0;" x1="1162.5" x2="1162.5" y1="118.5938" y2="1860.6563"/><line style="stroke:#181818;stroke-width:0.5;stroke-dasharray:5.0,5.0;" x1="1445.5" x2="1445.5" y1="118.5938" y2="1860.6563"/><text fill="#000000" font-family="sans-serif" font-size="14" lengthAdjust="spacing" textLength="36" x="40" y="115.292">Actor</text><ellipse cx="61" cy="50.7969" fill="#E2E2F0" rx="8" ry="8" style="stroke:#181818;stroke-width:0.5;"/><path d="M61,58.7969 L61,85.7969 M48,66.7969 L74,66.7969 M61,85.7969 L48,100.7969 M61,85.7969 L74,100.7969 " fill="none" style="stroke:#181818;stroke-width:0.5;"/><text fill="#000000" font-family="sans-serif" font-size="14" lengthAdjust="spacing" textLength="36" x="40" y="1872.6514">Actor</text><ellipse cx="61" cy="1884.4531" fill="#E2E2F0" rx="8" ry="8" style="stroke:#181818;stroke-width:0.5;"/><path d="M61,1892.4531 L61,1919.4531 M48,1900.4531 L74,1900.4531 M61,1919.4531 L48,1934.4531 M61,1919.4531 L74,1934.4531 " fill="none" style="stroke:#181818;stroke-width:0.5;"/><rect fill="#E2E2F0" height="30.2969" rx="2.5" ry="2.5" style="stroke:#181818;stroke-width:0.5;" width="215" x="230.5" y="87.2969"/><text fill="#000000" font-family="sans-serif" font-size="14" lengthAdjust="spacing" textLength="197" x="237.5" y="107.292">Create Transaction Form (UI)</text><rect fill="#E2E2F0" height="30.2969" rx="2.5" ry="2.5" style="stroke:#181818;stroke-width:0.5;" width="215" x="230.5" y="1859.6563"/><text fill="#000000" font-family="sans-serif" font-size="14" lengthAdjust="spacing" textLength="197" x="237.5" y="1879.6514">Create Transaction Form (UI)</text><rect fill="#E2E2F0" height="30.2969" rx="2.5" ry="2.5" style="stroke:#181818;stroke-width:0.5;" width="132" x="558" y="87.2969"/><text fill="#000000" font-family="sans-serif" font-size="14" lengthAdjust="spacing" textLength="118" x="565" y="107.292">GraphQL (Server)</text><rect fill="#E2E2F0" height="30.2969" rx="2.5" ry="2.5" style="stroke:#181818;stroke-width:0.5;" width="132" x="558" y="1859.6563"/><text fill="#000000" font-family="sans-serif" font-size="14" lengthAdjust="spacing" textLength="118" x="565" y="1879.6514">GraphQL (Server)</text><rect fill="#E2E2F0" height="30.2969" rx="2.5" ry="2.5" style="stroke:#181818;stroke-width:0.5;" width="201" x="714.5" y="87.2969"/><text fill="#000000" font-family="sans-serif" font-size="14" lengthAdjust="spacing" textLength="187" x="721.5" y="107.292">Leaky Bucket (Rate Limiter)</text><rect fill="#E2E2F0" height="30.2969" rx="2.5" ry="2.5" style="stroke:#181818;stroke-width:0.5;" width="201" x="714.5" y="1859.6563"/><text fill="#000000" font-family="sans-serif" font-size="14" lengthAdjust="spacing" textLength="187" x="721.5" y="1879.6514">Leaky Bucket (Rate Limiter)</text><rect fill="#E2E2F0" height="30.2969" rx="2.5" ry="2.5" style="stroke:#181818;stroke-width:0.5;" width="163" x="1081.5" y="87.2969"/><text fill="#000000" font-family="sans-serif" font-size="14" lengthAdjust="spacing" textLength="149" x="1088.5" y="107.292">MongoDB (Database)</text><rect fill="#E2E2F0" height="30.2969" rx="2.5" ry="2.5" style="stroke:#181818;stroke-width:0.5;" width="163" x="1081.5" y="1859.6563"/><text fill="#000000" font-family="sans-serif" font-size="14" lengthAdjust="spacing" textLength="149" x="1088.5" y="1879.6514">MongoDB (Database)</text><rect fill="#E2E2F0" height="30.2969" rx="2.5" ry="2.5" style="stroke:#181818;stroke-width:0.5;" width="382" x="1254.5" y="87.2969"/><text fill="#000000" font-family="sans-serif" font-size="14" lengthAdjust="spacing" textLength="368" x="1261.5" y="107.292">Bacen Dict API Key Check (Simulator External Service)</text><rect fill="#E2E2F0" height="30.2969" rx="2.5" ry="2.5" style="stroke:#181818;stroke-width:0.5;" width="382" x="1254.5" y="1859.6563"/><text fill="#000000" font-family="sans-serif" font-size="14" lengthAdjust="spacing" textLength="368" x="1261.5" y="1879.6514">Bacen Dict API Key Check (Simulator External Service)</text><path d="M717,133.5938 L717,158.5938 L913,158.5938 L913,143.5938 L903,133.5938 L717,133.5938 " fill="#FEFFDD" style="stroke:#181818;stroke-width:0.5;"/><path d="M903,133.5938 L903,143.5938 L913,143.5938 L903,133.5938 " fill="#FEFFDD" style="stroke:#181818;stroke-width:0.5;"/><text fill="#000000" font-family="sans-serif" font-size="13" lengthAdjust="spacing" textLength="175" x="723" y="150.6606">Balde inicia com 10 tokens.</text><path d="M542,168.7266 L542,193.7266 L1087,193.7266 L1087,178.7266 L1077,168.7266 L542,168.7266 " fill="#FEFFDD" style="stroke:#181818;stroke-width:0.5;"/><path d="M1077,168.7266 L1077,178.7266 L1087,178.7266 L1077,168.7266 " fill="#FEFFDD" style="stroke:#181818;stroke-width:0.5;"/><text fill="#000000" font-family="sans-serif" font-size="13" lengthAdjust="spacing" textLength="524" x="548" y="185.7935">Cada consulta de chave pix que n&#227;o se converta em um PixOut consome 1 token.</text><path d="M660,203.8594 L660,228.8594 L970,228.8594 L970,213.8594 L960,203.8594 L660,203.8594 " fill="#FEFFDD" style="stroke:#181818;stroke-width:0.5;"/><path d="M960,203.8594 L960,213.8594 L970,213.8594 L960,203.8594 " fill="#FEFFDD" style="stroke:#181818;stroke-width:0.5;"/><text fill="#000000" font-family="sans-serif" font-size="13" lengthAdjust="spacing" textLength="289" x="666" y="220.9263">1 token &#233; reposto no balde a cada uma hora.</text><path d="M1347,238.9922 L1347,263.9922 L1543,263.9922 L1543,248.9922 L1533,238.9922 L1347,238.9922 " fill="#FEFFDD" style="stroke:#181818;stroke-width:0.5;"/><path d="M1533,238.9922 L1533,248.9922 L1543,248.9922 L1533,238.9922 " fill="#FEFFDD" style="stroke:#181818;stroke-width:0.5;"/><text fill="#000000" font-family="sans-serif" font-size="13" lengthAdjust="spacing" textLength="175" x="1353" y="256.0591">Balde inicia com 70 tokens.</text><path d="M1163,274.125 L1163,299.125 L1727,299.125 L1727,284.125 L1717,274.125 L1163,274.125 " fill="#FEFFDD" style="stroke:#181818;stroke-width:0.5;"/><path d="M1717,274.125 L1717,284.125 L1727,284.125 L1717,274.125 " fill="#FEFFDD" style="stroke:#181818;stroke-width:0.5;"/><text fill="#000000" font-family="sans-serif" font-size="13" lengthAdjust="spacing" textLength="543" x="1169" y="291.1919">Cada consulta de chave valida que n&#227;o se converta em um PixOut consome 1 token.</text><path d="M1254,309.2578 L1254,334.2578 L1636,334.2578 L1636,319.2578 L1626,309.2578 L1254,309.2578 " fill="#FEFFDD" style="stroke:#181818;stroke-width:0.5;"/><path d="M1626,309.2578 L1626,319.2578 L1636,319.2578 L1626,309.2578 " fill="#FEFFDD" style="stroke:#181818;stroke-width:0.5;"/><text fill="#000000" font-family="sans-serif" font-size="13" lengthAdjust="spacing" textLength="361" x="1260" y="326.3247">Cada consulta de chave pix invalida consome 20 tokens.</text><path d="M1268,344.3906 L1268,369.3906 L1623,369.3906 L1623,354.3906 L1613,344.3906 L1268,344.3906 " fill="#FEFFDD" style="stroke:#181818;stroke-width:0.5;"/><path d="M1613,344.3906 L1613,354.3906 L1623,354.3906 L1613,344.3906 " fill="#FEFFDD" style="stroke:#181818;stroke-width:0.5;"/><text fill="#000000" font-family="sans-serif" font-size="13" lengthAdjust="spacing" textLength="334" x="1274" y="361.4575">70 tokens s&#227;o repostos no balde a cada um minuto.</text><polygon fill="#181818" points="326,391.6563,336,395.6563,326,399.6563,330,395.6563" style="stroke:#181818;stroke-width:1.0;"/><line style="stroke:#181818;stroke-width:1.0;" x1="61" x2="332" y1="395.6563" y2="395.6563"/><text fill="#000000" font-family="sans-serif" font-size="13" lengthAdjust="spacing" textLength="228" x="68" y="390.5903">Abrir modal/form de criar transa&#231;&#227;o</text><polygon fill="#181818" points="612,420.7891,622,424.7891,612,428.7891,616,424.7891" style="stroke:#181818;stroke-width:1.0;"/><line style="stroke:#181818;stroke-width:1.0;" x1="338" x2="618" y1="424.7891" y2="424.7891"/><text fill="#000000" font-family="sans-serif" font-size="13" lengthAdjust="spacing" textLength="201" x="345" y="419.7231">Envia token the authentifica&#231;&#227;o</text><polygon fill="#181818" points="612,449.9219,622,453.9219,612,457.9219,616,453.9219" style="stroke:#181818;stroke-width:1.0;"/><line style="stroke:#181818;stroke-width:1.0;" x1="338" x2="618" y1="453.9219" y2="453.9219"/><text fill="#000000" font-family="sans-serif" font-size="13" lengthAdjust="spacing" textLength="184" x="345" y="448.856">Envia os dados da transa&#231;&#227;o</text><path d="M10,468.9219 L74,468.9219 L74,476.0547 L64,486.0547 L10,486.0547 L10,468.9219 " fill="#EEEEEE" style="stroke:#000000;stroke-width:1.5;"/><rect fill="none" height="1374.7344" style="stroke:#000000;stroke-width:1.5;" width="1656.5" x="10" y="468.9219"/><text fill="#000000" font-family="sans-serif" font-size="13" font-weight="bold" lengthAdjust="spacing" textLength="19" x="25" y="481.9888">alt</text><text fill="#000000" font-family="sans-serif" font-size="11" font-weight="bold" lengthAdjust="spacing" textLength="297" x="89" y="481.1323">[Usu&#225;rio n&#227;o autorizado (Token JWT invalido)]</text><polygon fill="#181818" points="349,503.1875,339,507.1875,349,511.1875,345,507.1875" style="stroke:#181818;stroke-width:1.0;"/><line style="stroke:#181818;stroke-width:1.0;stroke-dasharray:2.0,2.0;" x1="343" x2="623" y1="507.1875" y2="507.1875"/><text fill="#000000" font-family="sans-serif" font-size="13" lengthAdjust="spacing" textLength="149" x="355" y="502.1216">Usu&#225;rio n&#227;o autorizado</text><polygon fill="#181818" points="72,532.3203,62,536.3203,72,540.3203,68,536.3203" style="stroke:#181818;stroke-width:1.0;"/><line style="stroke:#181818;stroke-width:1.0;stroke-dasharray:2.0,2.0;" x1="66" x2="337" y1="536.3203" y2="536.3203"/><text fill="#000000" font-family="sans-serif" font-size="13" lengthAdjust="spacing" textLength="231" x="78" y="531.2544">Exibe mensagem de n&#227;o autorizado</text><polygon fill="#181818" points="326,561.4531,336,565.4531,326,569.4531,330,565.4531" style="stroke:#181818;stroke-width:1.0;"/><line style="stroke:#181818;stroke-width:1.0;stroke-dasharray:2.0,2.0;" x1="61" x2="332" y1="565.4531" y2="565.4531"/><text fill="#000000" font-family="sans-serif" font-size="13" lengthAdjust="spacing" textLength="253" x="68" y="560.3872">Visualiza mensagem de n&#227;o autorizado</text><line style="stroke:#000000;stroke-width:1.0;stroke-dasharray:2.0,2.0;" x1="10" x2="1666.5" y1="574.4531" y2="574.4531"/><text fill="#000000" font-family="sans-serif" font-size="11" font-weight="bold" lengthAdjust="spacing" textLength="257" x="15" y="584.6636">[Usu&#225;rio autorizado (Token JWT valido)]</text><path d="M20,595.2578 L84,595.2578 L84,602.3906 L74,612.3906 L20,612.3906 L20,595.2578 " fill="#EEEEEE" style="stroke:#000000;stroke-width:1.5;"/><rect fill="none" height="1241.3984" style="stroke:#000000;stroke-width:1.5;" width="1636.5" x="20" y="595.2578"/><text fill="#000000" font-family="sans-serif" font-size="13" font-weight="bold" lengthAdjust="spacing" textLength="19" x="35" y="608.3247">alt</text><text fill="#000000" font-family="sans-serif" font-size="11" font-weight="bold" lengthAdjust="spacing" textLength="308" x="99" y="607.4683">[Balde sem capacidade (Transa&#231;&#227;o bloqueada)]</text><polygon fill="#181818" points="349,629.5234,339,633.5234,349,637.5234,345,633.5234" style="stroke:#181818;stroke-width:1.0;"/><line style="stroke:#181818;stroke-width:1.0;stroke-dasharray:2.0,2.0;" x1="343" x2="623" y1="633.5234" y2="633.5234"/><text fill="#000000" font-family="sans-serif" font-size="13" lengthAdjust="spacing" textLength="146" x="355" y="628.4575">Descartar a solicita&#231;&#227;o</text><polygon fill="#181818" points="72,658.6563,62,662.6563,72,666.6563,68,662.6563" style="stroke:#181818;stroke-width:1.0;"/><line style="stroke:#181818;stroke-width:1.0;stroke-dasharray:2.0,2.0;" x1="66" x2="337" y1="662.6563" y2="662.6563"/><text fill="#000000" font-family="sans-serif" font-size="13" lengthAdjust="spacing" textLength="123" x="78" y="657.5903">Too many requests</text><polygon fill="#181818" points="326,687.7891,336,691.7891,326,695.7891,330,691.7891" style="stroke:#181818;stroke-width:1.0;"/><line style="stroke:#181818;stroke-width:1.0;stroke-dasharray:2.0,2.0;" x1="61" x2="332" y1="691.7891" y2="691.7891"/><text fill="#000000" font-family="sans-serif" font-size="13" lengthAdjust="spacing" textLength="183" x="68" y="686.7231">Visualiza mensagem de erro</text><line style="stroke:#000000;stroke-width:1.0;stroke-dasharray:2.0,2.0;" x1="20" x2="1656.5" y1="700.7891" y2="700.7891"/><text fill="#000000" font-family="sans-serif" font-size="11" font-weight="bold" lengthAdjust="spacing" textLength="301" x="25" y="710.9995">[Balde com capacidade (Transa&#231;&#227;o permitida)]</text><polygon fill="#181818" points="612,731.7266,622,735.7266,612,739.7266,616,735.7266" style="stroke:#181818;stroke-width:1.0;"/><line style="stroke:#181818;stroke-width:1.0;" x1="338" x2="618" y1="735.7266" y2="735.7266"/><text fill="#000000" font-family="sans-serif" font-size="13" lengthAdjust="spacing" textLength="151" x="345" y="730.6606">Solicitar criar transa&#231;&#227;o</text><polygon fill="#181818" points="803,760.8594,813,764.8594,803,768.8594,807,764.8594" style="stroke:#181818;stroke-width:1.0;"/><line style="stroke:#181818;stroke-width:1.0;" x1="624" x2="809" y1="764.8594" y2="764.8594"/><text fill="#000000" font-family="sans-serif" font-size="13" lengthAdjust="spacing" textLength="113" x="631" y="759.7935">Consumir 1 token</text><polygon fill="#181818" points="1151,789.9922,1161,793.9922,1151,797.9922,1155,793.9922" style="stroke:#181818;stroke-width:1.0;"/><line style="stroke:#181818;stroke-width:1.0;" x1="624" x2="1157" y1="793.9922" y2="793.9922"/><text fill="#000000" font-family="sans-serif" font-size="13" lengthAdjust="spacing" textLength="355" x="631" y="788.9263">Verificar se chave pix de destino pertence a um usu&#225;rio</text><line style="stroke:#181818;stroke-width:1.0;" x1="1163" x2="1205" y1="823.125" y2="823.125"/><line style="stroke:#181818;stroke-width:1.0;" x1="1205" x2="1205" y1="823.125" y2="836.125"/><line style="stroke:#181818;stroke-width:1.0;" x1="1164" x2="1205" y1="836.125" y2="836.125"/><polygon fill="#181818" points="1174,832.125,1164,836.125,1174,840.125,1170,836.125" style="stroke:#181818;stroke-width:1.0;"/><text fill="#000000" font-family="sans-serif" font-size="13" lengthAdjust="spacing" textLength="82" x="1170" y="818.0591">Processando</text><path d="M30,851.125 L94,851.125 L94,858.2578 L84,868.2578 L30,868.2578 L30,851.125 " fill="#EEEEEE" style="stroke:#000000;stroke-width:1.5;"/><rect fill="none" height="177.6016" style="stroke:#000000;stroke-width:1.5;" width="1224.5" x="30" y="851.125"/><text fill="#000000" font-family="sans-serif" font-size="13" font-weight="bold" lengthAdjust="spacing" textLength="19" x="45" y="864.1919">alt</text><text fill="#000000" font-family="sans-serif" font-size="11" font-weight="bold" lengthAdjust="spacing" textLength="62" x="109" y="863.3354">[sucesso]</text><polygon fill="#181818" points="635,885.3906,625,889.3906,635,893.3906,631,889.3906" style="stroke:#181818;stroke-width:1.0;"/><line style="stroke:#181818;stroke-width:1.0;stroke-dasharray:2.0,2.0;" x1="629" x2="1162" y1="889.3906" y2="889.3906"/><text fill="#000000" font-family="sans-serif" font-size="13" lengthAdjust="spacing" textLength="211" x="641" y="884.3247">Chave pix pertence a um usu&#225;rio</text><line style="stroke:#000000;stroke-width:1.0;stroke-dasharray:2.0,2.0;" x1="30" x2="1254.5" y1="898.3906" y2="898.3906"/><text fill="#000000" font-family="sans-serif" font-size="11" font-weight="bold" lengthAdjust="spacing" textLength="41" x="35" y="908.6011">[error]</text><polygon fill="#181818" points="635,929.3281,625,933.3281,635,937.3281,631,933.3281" style="stroke:#181818;stroke-width:1.0;"/><line style="stroke:#181818;stroke-width:1.0;stroke-dasharray:2.0,2.0;" x1="629" x2="1162" y1="933.3281" y2="933.3281"/><text fill="#000000" font-family="sans-serif" font-size="13" lengthAdjust="spacing" textLength="239" x="641" y="928.2622">Chave pix n&#227;o pertence a um usu&#225;rio</text><polygon fill="#181818" points="349,958.4609,339,962.4609,349,966.4609,345,962.4609" style="stroke:#181818;stroke-width:1.0;"/><line style="stroke:#181818;stroke-width:1.0;stroke-dasharray:2.0,2.0;" x1="343" x2="623" y1="962.4609" y2="962.4609"/><text fill="#000000" font-family="sans-serif" font-size="13" lengthAdjust="spacing" textLength="177" x="355" y="957.395">Retorna mensagem de erro</text><polygon fill="#181818" points="72,987.5938,62,991.5938,72,995.5938,68,991.5938" style="stroke:#181818;stroke-width:1.0;"/><line style="stroke:#181818;stroke-width:1.0;stroke-dasharray:2.0,2.0;" x1="66" x2="337" y1="991.5938" y2="991.5938"/><text fill="#000000" font-family="sans-serif" font-size="13" lengthAdjust="spacing" textLength="198" x="78" y="986.5278">Exibir mensagem toast de erro</text><polygon fill="#181818" points="326,1016.7266,336,1020.7266,326,1024.7266,330,1020.7266" style="stroke:#181818;stroke-width:1.0;"/><line style="stroke:#181818;stroke-width:1.0;stroke-dasharray:2.0,2.0;" x1="61" x2="332" y1="1020.7266" y2="1020.7266"/><text fill="#000000" font-family="sans-serif" font-size="13" lengthAdjust="spacing" textLength="183" x="68" y="1015.6606">Visualiza mensagem de erro</text><polygon fill="#181818" points="1151,1052.8594,1161,1056.8594,1151,1060.8594,1155,1056.8594" style="stroke:#181818;stroke-width:1.0;"/><line style="stroke:#181818;stroke-width:1.0;" x1="624" x2="1157" y1="1056.8594" y2="1056.8594"/><text fill="#000000" font-family="sans-serif" font-size="13" lengthAdjust="spacing" textLength="515" x="631" y="1051.7935">Verificar se o usu&#225;rio de destino pertence ao mesmo tenant do usu&#225;rio de origin</text><line style="stroke:#181818;stroke-width:1.0;" x1="1163" x2="1205" y1="1085.9922" y2="1085.9922"/><line style="stroke:#181818;stroke-width:1.0;" x1="1205" x2="1205" y1="1085.9922" y2="1098.9922"/><line style="stroke:#181818;stroke-width:1.0;" x1="1164" x2="1205" y1="1098.9922" y2="1098.9922"/><polygon fill="#181818" points="1174,1094.9922,1164,1098.9922,1174,1102.9922,1170,1098.9922" style="stroke:#181818;stroke-width:1.0;"/><text fill="#000000" font-family="sans-serif" font-size="13" lengthAdjust="spacing" textLength="69" x="1170" y="1080.9263">Processing</text><path d="M30,1113.9922 L94,1113.9922 L94,1121.125 L84,1131.125 L30,1131.125 L30,1113.9922 " fill="#EEEEEE" style="stroke:#000000;stroke-width:1.5;"/><rect fill="none" height="177.6016" style="stroke:#000000;stroke-width:1.5;" width="1224.5" x="30" y="1113.9922"/><text fill="#000000" font-family="sans-serif" font-size="13" font-weight="bold" lengthAdjust="spacing" textLength="19" x="45" y="1127.0591">alt</text><text fill="#000000" font-family="sans-serif" font-size="11" font-weight="bold" lengthAdjust="spacing" textLength="62" x="109" y="1126.2026">[sucesso]</text><polygon fill="#181818" points="635,1148.2578,625,1152.2578,635,1156.2578,631,1152.2578" style="stroke:#181818;stroke-width:1.0;"/><line style="stroke:#181818;stroke-width:1.0;stroke-dasharray:2.0,2.0;" x1="629" x2="1162" y1="1152.2578" y2="1152.2578"/><text fill="#000000" font-family="sans-serif" font-size="13" lengthAdjust="spacing" textLength="195" x="641" y="1147.1919">Usu&#225;rio s&#227;o do mesmo tenant</text><line style="stroke:#000000;stroke-width:1.0;stroke-dasharray:2.0,2.0;" x1="30" x2="1254.5" y1="1161.2578" y2="1161.2578"/><text fill="#000000" font-family="sans-serif" font-size="11" font-weight="bold" lengthAdjust="spacing" textLength="36" x="35" y="1171.4683">[erro]</text><polygon fill="#181818" points="635,1192.1953,625,1196.1953,635,1200.1953,631,1196.1953" style="stroke:#181818;stroke-width:1.0;"/><line style="stroke:#181818;stroke-width:1.0;stroke-dasharray:2.0,2.0;" x1="629" x2="1162" y1="1196.1953" y2="1196.1953"/><text fill="#000000" font-family="sans-serif" font-size="13" lengthAdjust="spacing" textLength="210" x="641" y="1191.1294">Usu&#225;rio s&#227;o de tenant diferentes</text><polygon fill="#181818" points="349,1221.3281,339,1225.3281,349,1229.3281,345,1225.3281" style="stroke:#181818;stroke-width:1.0;"/><line style="stroke:#181818;stroke-width:1.0;stroke-dasharray:2.0,2.0;" x1="343" x2="623" y1="1225.3281" y2="1225.3281"/><text fill="#000000" font-family="sans-serif" font-size="13" lengthAdjust="spacing" textLength="177" x="355" y="1220.2622">Retorna mensagem de erro</text><polygon fill="#181818" points="72,1250.4609,62,1254.4609,72,1258.4609,68,1254.4609" style="stroke:#181818;stroke-width:1.0;"/><line style="stroke:#181818;stroke-width:1.0;stroke-dasharray:2.0,2.0;" x1="66" x2="337" y1="1254.4609" y2="1254.4609"/><text fill="#000000" font-family="sans-serif" font-size="13" lengthAdjust="spacing" textLength="198" x="78" y="1249.395">Exibir mensagem toast de erro</text><polygon fill="#181818" points="326,1279.5938,336,1283.5938,326,1287.5938,330,1283.5938" style="stroke:#181818;stroke-width:1.0;"/><line style="stroke:#181818;stroke-width:1.0;stroke-dasharray:2.0,2.0;" x1="61" x2="332" y1="1283.5938" y2="1283.5938"/><text fill="#000000" font-family="sans-serif" font-size="13" lengthAdjust="spacing" textLength="183" x="68" y="1278.5278">Visualiza mensagem de erro</text><polygon fill="#181818" points="1433.5,1315.7266,1443.5,1319.7266,1433.5,1323.7266,1437.5,1319.7266" style="stroke:#181818;stroke-width:1.0;"/><line style="stroke:#181818;stroke-width:1.0;" x1="624" x2="1439.5" y1="1319.7266" y2="1319.7266"/><text fill="#000000" font-family="sans-serif" font-size="13" lengthAdjust="spacing" textLength="255" x="631" y="1314.6606">Verificar chave pix existe no Bacen DICT</text><line style="stroke:#181818;stroke-width:1.0;" x1="1445.5" x2="1487.5" y1="1348.8594" y2="1348.8594"/><line style="stroke:#181818;stroke-width:1.0;" x1="1487.5" x2="1487.5" y1="1348.8594" y2="1361.8594"/><line style="stroke:#181818;stroke-width:1.0;" x1="1446.5" x2="1487.5" y1="1361.8594" y2="1361.8594"/><polygon fill="#181818" points="1456.5,1357.8594,1446.5,1361.8594,1456.5,1365.8594,1452.5,1361.8594" style="stroke:#181818;stroke-width:1.0;"/><text fill="#000000" font-family="sans-serif" font-size="13" lengthAdjust="spacing" textLength="58" x="1452.5" y="1343.7935">Processa</text><path d="M30,1376.8594 L94,1376.8594 L94,1383.9922 L84,1393.9922 L30,1393.9922 L30,1376.8594 " fill="#EEEEEE" style="stroke:#000000;stroke-width:1.5;"/><rect fill="none" height="177.6016" style="stroke:#000000;stroke-width:1.5;" width="1616.5" x="30" y="1376.8594"/><text fill="#000000" font-family="sans-serif" font-size="13" font-weight="bold" lengthAdjust="spacing" textLength="19" x="45" y="1389.9263">alt</text><text fill="#000000" font-family="sans-serif" font-size="11" font-weight="bold" lengthAdjust="spacing" textLength="62" x="109" y="1389.0698">[sucesso]</text><polygon fill="#181818" points="635,1411.125,625,1415.125,635,1419.125,631,1415.125" style="stroke:#181818;stroke-width:1.0;"/><line style="stroke:#181818;stroke-width:1.0;stroke-dasharray:2.0,2.0;" x1="629" x2="1444.5" y1="1415.125" y2="1415.125"/><text fill="#000000" font-family="sans-serif" font-size="13" lengthAdjust="spacing" textLength="115" x="641" y="1410.0591">Chave pix &#233; valida</text><line style="stroke:#000000;stroke-width:1.0;stroke-dasharray:2.0,2.0;" x1="30" x2="1646.5" y1="1424.125" y2="1424.125"/><text fill="#000000" font-family="sans-serif" font-size="11" font-weight="bold" lengthAdjust="spacing" textLength="36" x="35" y="1434.3354">[erro]</text><polygon fill="#181818" points="635,1455.0625,625,1459.0625,635,1463.0625,631,1459.0625" style="stroke:#181818;stroke-width:1.0;"/><line style="stroke:#181818;stroke-width:1.0;stroke-dasharray:2.0,2.0;" x1="629" x2="1444.5" y1="1459.0625" y2="1459.0625"/><text fill="#000000" font-family="sans-serif" font-size="13" lengthAdjust="spacing" textLength="126" x="641" y="1453.9966">Chave pix &#233; invalida</text><polygon fill="#181818" points="349,1484.1953,339,1488.1953,349,1492.1953,345,1488.1953" style="stroke:#181818;stroke-width:1.0;"/><line style="stroke:#181818;stroke-width:1.0;stroke-dasharray:2.0,2.0;" x1="343" x2="623" y1="1488.1953" y2="1488.1953"/><text fill="#000000" font-family="sans-serif" font-size="13" lengthAdjust="spacing" textLength="177" x="355" y="1483.1294">Retorna mensagem de erro</text><polygon fill="#181818" points="72,1513.3281,62,1517.3281,72,1521.3281,68,1517.3281" style="stroke:#181818;stroke-width:1.0;"/><line style="stroke:#181818;stroke-width:1.0;stroke-dasharray:2.0,2.0;" x1="66" x2="337" y1="1517.3281" y2="1517.3281"/><text fill="#000000" font-family="sans-serif" font-size="13" lengthAdjust="spacing" textLength="198" x="78" y="1512.2622">Exibir mensagem toast de erro</text><polygon fill="#181818" points="326,1542.4609,336,1546.4609,326,1550.4609,330,1546.4609" style="stroke:#181818;stroke-width:1.0;"/><line style="stroke:#181818;stroke-width:1.0;stroke-dasharray:2.0,2.0;" x1="61" x2="332" y1="1546.4609" y2="1546.4609"/><text fill="#000000" font-family="sans-serif" font-size="13" lengthAdjust="spacing" textLength="183" x="68" y="1541.395">Visualiza mensagem de erro</text><polygon fill="#181818" points="1151,1578.5938,1161,1582.5938,1151,1586.5938,1155,1582.5938" style="stroke:#181818;stroke-width:1.0;"/><line style="stroke:#181818;stroke-width:1.0;" x1="624" x2="1157" y1="1582.5938" y2="1582.5938"/><text fill="#000000" font-family="sans-serif" font-size="13" lengthAdjust="spacing" textLength="234" x="631" y="1577.5278">Salvar transa&#231;&#227;o no banco de dados</text><line style="stroke:#181818;stroke-width:1.0;" x1="1163" x2="1205" y1="1611.7266" y2="1611.7266"/><line style="stroke:#181818;stroke-width:1.0;" x1="1205" x2="1205" y1="1611.7266" y2="1624.7266"/><line style="stroke:#181818;stroke-width:1.0;" x1="1164" x2="1205" y1="1624.7266" y2="1624.7266"/><polygon fill="#181818" points="1174,1620.7266,1164,1624.7266,1174,1628.7266,1170,1624.7266" style="stroke:#181818;stroke-width:1.0;"/><text fill="#000000" font-family="sans-serif" font-size="13" lengthAdjust="spacing" textLength="51" x="1170" y="1606.6606">Persiste</text><polygon fill="#181818" points="635,1649.8594,625,1653.8594,635,1657.8594,631,1653.8594" style="stroke:#181818;stroke-width:1.0;"/><line style="stroke:#181818;stroke-width:1.0;stroke-dasharray:2.0,2.0;" x1="629" x2="1162" y1="1653.8594" y2="1653.8594"/><text fill="#000000" font-family="sans-serif" font-size="13" lengthAdjust="spacing" textLength="35" x="641" y="1648.7935">Salvo</text><polygon fill="#181818" points="803,1678.9922,813,1682.9922,803,1686.9922,807,1682.9922" style="stroke:#181818;stroke-width:1.0;"/><line style="stroke:#181818;stroke-width:1.0;" x1="624" x2="809" y1="1682.9922" y2="1682.9922"/><text fill="#000000" font-family="sans-serif" font-size="13" lengthAdjust="spacing" textLength="167" x="631" y="1677.9263">Devolver 1 token ao balde</text><polygon fill="#181818" points="635,1708.125,625,1712.125,635,1716.125,631,1712.125" style="stroke:#181818;stroke-width:1.0;"/><line style="stroke:#181818;stroke-width:1.0;stroke-dasharray:2.0,2.0;" x1="629" x2="814" y1="1712.125" y2="1712.125"/><text fill="#000000" font-family="sans-serif" font-size="13" lengthAdjust="spacing" textLength="62" x="641" y="1707.0591">Devolvido</text><polygon fill="#181818" points="349,1737.2578,339,1741.2578,349,1745.2578,345,1741.2578" style="stroke:#181818;stroke-width:1.0;"/><line style="stroke:#181818;stroke-width:1.0;stroke-dasharray:2.0,2.0;" x1="343" x2="623" y1="1741.2578" y2="1741.2578"/><text fill="#000000" font-family="sans-serif" font-size="13" lengthAdjust="spacing" textLength="191" x="355" y="1736.1919">Transa&#231;&#227;o salva com sucesso</text><polygon fill="#181818" points="349,1766.3906,339,1770.3906,349,1774.3906,345,1770.3906" style="stroke:#181818;stroke-width:1.0;"/><line style="stroke:#181818;stroke-width:1.0;stroke-dasharray:2.0,2.0;" x1="343" x2="623" y1="1770.3906" y2="1770.3906"/><text fill="#000000" font-family="sans-serif" font-size="13" lengthAdjust="spacing" textLength="262" x="355" y="1765.3247">Devolve dados da transa&#231;&#227;o na resposta</text><polygon fill="#181818" points="72,1795.5234,62,1799.5234,72,1803.5234,68,1799.5234" style="stroke:#181818;stroke-width:1.0;"/><line style="stroke:#181818;stroke-width:1.0;stroke-dasharray:2.0,2.0;" x1="66" x2="337" y1="1799.5234" y2="1799.5234"/><text fill="#000000" font-family="sans-serif" font-size="13" lengthAdjust="spacing" textLength="224" x="78" y="1794.4575">Exibir mensagem toast de sucesso</text><polygon fill="#181818" points="326,1824.6563,336,1828.6563,326,1832.6563,330,1828.6563" style="stroke:#181818;stroke-width:1.0;"/><line style="stroke:#181818;stroke-width:1.0;stroke-dasharray:2.0,2.0;" x1="61" x2="332" y1="1828.6563" y2="1828.6563"/><text fill="#000000" font-family="sans-serif" font-size="13" lengthAdjust="spacing" textLength="183" x="68" y="1823.5903">Visualiza mensagem de erro</text><!--SRC=[tLR1RXj73BtlLn0-oGUdJIy5ZA20BJc1MmTrOoKzKxEqDV3kZ3epAyZvcw27ej_X7oivErfhbLbrrTvoi2pjae-FVEGCKGNhuEH2_fqKGOUAu7rJyHSoQDGJt10-Fi5benuf5CKANT1Ahz04E9awma0mTsWygg2jWRVMrJ3vU7qA9u0UMeiT0tdV1tddSBNyxGOcT-JMv4wZNthOFkhRx_A1oGSXSADhffjSu_j4j-Vutfe7Exk4oGm3Bj1JQvyUzsqlKP61cLO1BcwluHTwWkcIr2Epr7LJeTJiQiCn3LOWBBLASD5J7DcFtQ9NKHZBD2tdialld8shaa0RZekWR0slluTW7yduLqCkKop5r7ZM286zrHBN12kzWJyQ0lFyfmLFOi6kR44rD3NSwislJOX-jYPutKOP39BUm_FVu6XbVR1WB2mYMuuk59eQOMaTxcBaSiya-MCkoRplGBPhh3I_-5y97nLGogjD2hi5_M5y7btAu8LlAghFL1LgRPfWNnL5cicpd_9JT0uN2wSTrBR4whjxcJkXwpGw2D7q-I-ELMITWL5xCtOELsRD-hIwXoKpQlZJ17slrNz2uknABEDdZq-1LO2Fldd-uhHjvUDGrkdFR0sJUIJmy-_pRRtjQG7v2i2RixFzs4F0Z97g6Rq6AdgrqGk2cdN21uhr_1h6KMYSWK_QDqplCnuqfufRi-EKp_CbIwbCEosUuHIkK76_yS_9_AM0iAWiDpvtYxWSKPePUSLd7BS7WhSLZsD8aWZCYEhChOKQpHENW0duuAFZmNgGSm8Voz1c9WV0K6OhSdoGwyEPVTrlToaPb-b-mUcPYt__G9LXhtcGqXbHv7tIDN4EdyZ5cN3nrEbE1ywbv9fe4zFWorF9KFCyDqdz2BkzWtO1RvrLv3sQihMHBl2DF6f_xv4HWJhVQHV_GD1OVL727O5daY13e0FoPFhk0t5ZcMnVZ6my6KivwRO0mQ8FUp1Zsf1BOSgCleFosYxdlBuy3-Hh2t5NOaPzUvxr1st-JNTj7ewMlJjHucrIzcdqDJyMYxfaz3qvlW38VtDwYmpvU_f5_PV9fetsVBkpy6ahl9xE8sOEOX1vE-LZjHvOJpfMl9grwyWukKV0RVURRrBkhjtli5htxuXs2JEgdN5PMOP7bfoNPiZ4wCsK11bpzyneRIjviLsuCUs30m4ophmw58VtW3szTYzSByM8L_9kDuv5IkopQnvmHpZoikRY_dvnR1liSXkrRN0NyDy_]--></g></svg>